# Blender v2.80 (sub 75) OBJ File: 'V1.3.blend'
# www.blender.org
mtllib V1.3.mtl
o Crash_Final.002
v -0.203569 1.005380 0.077968
v 0.034481 1.341253 0.177013
v -0.261332 1.842267 -0.011775
v -0.151258 1.889986 0.009211
v -0.044585 2.003465 0.000000
v -0.042003 2.150342 -0.030050
v 0.131050 2.254963 0.106821
v 0.356791 2.182858 -0.084159
v -0.287631 1.486574 -0.213210
v 0.264200 1.821566 -0.177259
v 0.252010 1.957244 -0.083844
v -0.069700 2.063259 -0.478987
v 0.081651 1.681826 -0.281309
v -0.004088 0.556803 -0.037071
v 0.104982 0.347906 -0.223553
v 0.132945 0.504803 -0.186950
v 0.132841 0.573944 -0.079237
v -0.056876 0.730255 -0.185383
v -0.126386 1.189471 -0.852635
v -0.266986 1.413970 -0.554859
v 0.089784 1.157380 -0.813959
v -0.113984 1.025840 -1.037922
v -0.119832 0.981501 -0.981310
v 0.210012 1.099298 -0.812709
v 0.035223 0.973712 -1.142660
v 0.147106 0.962247 -1.063733
v -0.006562 0.888964 -1.121232
v 0.053304 0.837338 -1.129408
v 0.033182 0.160824 -0.131548
v -0.076590 0.396233 -0.169733
v -0.125286 0.062735 -0.112768
v -0.050757 0.000493 -0.050788
v 0.259280 0.062341 -0.045331
v 0.433610 0.061848 -0.133669
v 0.047243 1.300338 -0.095247
v 0.263301 1.726833 0.131346
v 0.252010 1.957244 0.083844
v 0.266944 1.508895 -0.000000
v 0.689867 1.595902 -0.000000
v 0.186284 1.585150 0.155134
v 0.170049 1.420805 -0.000000
v 0.081651 1.681826 0.281309
v -0.004088 0.556803 0.037071
v 0.009171 0.340053 0.274678
v 0.117695 0.343240 0.131410
v -0.196322 1.268719 0.571039
v -0.192499 1.378575 0.641250
v 0.141229 1.105583 0.896866
v 0.084810 1.164046 0.877577
v 0.035223 0.973712 1.142660
v -0.005065 1.001227 1.002262
v -0.061813 0.396588 0.190650
v -0.076590 0.396233 0.169733
v -0.050113 0.062144 0.252643
v -0.050113 -0.000000 0.252348
v 0.434461 0.000000 0.134970
v 0.406333 0.172236 0.226560
v 0.002684 1.136635 -0.000000
v 0.060238 0.686964 -0.000000
v 0.270835 1.798400 0.131584
v 0.274751 1.797790 0.059744
v 0.047243 1.300338 0.095247
v 0.171637 1.287098 -0.000000
v 0.278319 1.824207 -0.018717
v 0.278319 1.824207 0.018717
v 0.062892 1.404562 0.153618
v 0.111787 1.267177 -0.160549
v 0.062892 1.404562 -0.153618
v 0.111787 1.267177 0.160549
v 0.034481 1.341253 -0.177013
v -0.133807 2.027099 0.028534
v 0.164474 2.005675 -0.013687
v 0.218435 1.987614 0.000000
v -0.136535 1.902695 -0.192624
v 0.097722 1.856037 -0.223764
v -0.031182 1.808896 -0.356815
v -0.126288 1.762809 -0.235120
v -0.143093 1.373245 -0.258459
v -0.229189 1.499511 -0.257516
v 0.270835 1.798400 -0.131584
v 0.246286 1.721757 -0.186405
v 0.096058 1.648372 -0.250722
v -0.265320 1.181378 -0.125865
v -0.118383 1.154549 -0.169077
v -0.070317 0.554786 -0.169247
v -0.143289 0.345963 -0.164006
v 0.117694 0.343240 -0.131410
v 0.132603 0.504317 -0.104783
v 0.084990 0.732395 -0.091418
v -0.098803 0.554948 -0.090796
v -0.243081 1.347604 -0.502522
v -0.192499 1.378575 -0.641250
v -0.272873 1.375432 -0.609073
v -0.242958 1.347740 -0.679544
v 0.141229 1.105583 -0.896866
v 0.084810 1.164046 -0.877578
v -0.050113 0.062144 -0.252643
v 0.084559 0.061602 -0.062062
v -0.089387 1.917897 0.026534
v -0.252629 1.714028 0.000000
v 0.067329 1.941950 -0.029248
v 0.107685 2.012743 -0.010875
v 0.114048 1.913438 -0.084994
v -0.221969 1.641773 -0.208564
v 0.265382 1.847285 -0.090608
v -0.060747 1.976645 -0.255446
v 0.006692 1.711588 -0.265837
v -0.097777 1.627785 -0.274256
v -0.186136 1.539976 -0.301329
v 0.209255 1.550197 -0.000000
v 0.205104 1.564665 -0.000000
v 0.264659 1.707117 -0.100666
v 0.525437 1.615576 -0.000000
v 0.266611 1.726276 -0.059776
v 0.274750 1.797790 -0.059744
v 0.090781 1.805069 -0.239599
v 0.015981 1.912346 -0.318076
v 0.065852 1.712196 -0.249424
v 0.227164 1.687315 -0.164307
v 0.184753 1.597948 -0.200946
v 0.437312 1.512569 -0.000000
v 0.599815 1.643850 -0.000000
v 0.612620 1.597993 -0.076657
v 0.186284 1.585150 -0.155134
v 0.102978 1.488359 -0.104476
v 0.181284 1.480162 -0.000000
v 0.159216 1.362940 -0.000000
v 0.119597 1.413055 -0.098106
v 0.032085 1.530381 -0.217673
v 0.129599 1.371331 -0.117306
v -0.047598 1.141347 -0.115699
v -0.085206 0.949388 -0.119088
v -0.050386 1.424934 -0.287082
v -0.108139 0.685655 -0.092015
v -0.000000 0.338963 -0.049422
v 0.009171 0.340053 -0.274678
v -0.008410 0.556682 -0.220891
v 0.133183 0.573484 -0.180001
v 0.017464 0.732077 -0.168092
v -0.060778 0.894732 -0.127630
v 0.036063 0.854814 -0.047913
v -0.200093 1.310713 -0.520657
v -0.145262 1.321106 -0.565756
v -0.143344 1.378218 -0.596936
v -0.018600 1.513373 -0.355110
v 0.003509 1.601095 -0.287523
v -0.107726 1.556823 -0.368774
v -0.196978 1.419045 -0.582758
v -0.196322 1.268719 -0.571039
v -0.097251 1.188733 -0.824941
v -0.104031 1.176005 -0.901656
v -0.148016 1.129774 -0.929887
v -0.163270 1.153604 -0.851066
v -0.262329 1.322603 -0.566537
v -0.244898 1.285252 -0.632654
v -0.138749 1.147965 -0.830344
v 0.040825 1.119739 -0.905809
v -0.019886 1.081046 -1.066849
v -0.049632 1.097722 -0.877327
v 0.094757 1.117700 -0.840152
v 0.121410 1.045289 -1.016338
v -0.074551 0.830477 -1.093724
v -0.005065 1.001227 -1.002262
v 0.163587 0.877910 -1.113516
v 0.092983 0.896147 -1.134750
v -0.061813 0.396588 -0.190650
v -0.050757 0.062026 -0.051192
v 0.247131 0.155465 -0.111535
v 0.269089 0.225298 -0.235946
v 0.255863 0.153690 -0.365692
v 0.227534 0.062440 -0.390487
v 0.227928 -0.000000 -0.390783
v -0.050113 0.000000 -0.252348
v -0.125286 0.000000 -0.141810
v 0.084133 0.000246 -0.064280
v 0.228354 0.000246 -0.045490
v 0.434462 -0.000000 -0.134970
v 0.411083 -0.000000 -0.289832
v 0.411219 0.061848 -0.289511
v 0.406333 0.172236 -0.226560
v -0.002606 0.967520 -0.071879
v 0.202052 1.912919 -0.000000
v -0.203569 1.005380 -0.077968
v 0.269486 1.725724 -0.000000
v 0.597380 1.533257 -0.000000
v 0.191267 1.343179 -0.000000
v -0.136535 1.902695 0.192625
v 0.097722 1.856037 0.223764
v -0.031182 1.808896 0.356815
v -0.126288 1.762809 0.235120
v -0.143093 1.373245 0.258459
v -0.229189 1.499511 0.257516
v 0.096058 1.648373 0.250722
v -0.118383 1.154549 0.169077
v -0.070317 0.554786 0.169247
v -0.143289 0.345963 0.164006
v 0.132603 0.504317 0.104783
v 0.132841 0.573944 0.079237
v 0.084990 0.732395 0.091418
v -0.098803 0.554948 0.090796
v -0.056876 0.730255 0.185383
v -0.243081 1.347604 0.502522
v -0.266986 1.413970 0.554859
v -0.272873 1.375432 0.609073
v -0.242958 1.347740 0.679544
v 0.147106 0.962247 1.063733
v -0.006562 0.888964 1.121232
v 0.053304 0.837338 1.129408
v -0.125286 0.062735 0.112768
v 0.084559 0.061602 0.062062
v -0.050757 0.000493 0.050788
v 0.114048 1.913438 0.084994
v -0.287631 1.486574 0.213210
v 0.265382 1.847285 0.090608
v 0.264200 1.821566 0.177259
v -0.060747 1.976645 0.255446
v -0.069700 2.063259 0.478987
v 0.006692 1.711588 0.265837
v -0.097777 1.627785 0.274256
v -0.186136 1.539976 0.301329
v 0.264659 1.707117 0.100666
v 0.246286 1.721757 0.186405
v 0.090781 1.805069 0.239599
v 0.015981 1.912345 0.318076
v 0.065852 1.712196 0.249424
v 0.227164 1.687315 0.164307
v 0.184753 1.597948 0.200946
v 0.612620 1.597993 0.076657
v 0.102978 1.488359 0.104476
v 0.119597 1.413055 0.098106
v 0.032085 1.530381 0.217673
v 0.129599 1.371331 0.117306
v -0.047598 1.141347 0.115699
v -0.085206 0.949388 0.119088
v -0.050386 1.424934 0.287082
v -0.155172 0.886106 0.064480
v 0.000000 0.338963 0.049422
v -0.008410 0.556682 0.220891
v 0.132945 0.504803 0.186950
v 0.104982 0.347906 0.223552
v 0.133183 0.573484 0.180001
v 0.017464 0.732077 0.168092
v -0.060778 0.894732 0.127630
v 0.036063 0.854814 0.047913
v -0.200093 1.310713 0.520657
v -0.145262 1.321106 0.565756
v -0.143344 1.378219 0.596936
v -0.018600 1.513373 0.355110
v 0.003509 1.601095 0.287523
v -0.107726 1.556823 0.368774
v -0.196978 1.419045 0.582758
v -0.097251 1.188733 0.824941
v -0.126386 1.189471 0.852635
v -0.104030 1.176005 0.901656
v -0.148016 1.129774 0.929887
v -0.163270 1.153604 0.851066
v -0.262329 1.322603 0.566537
v -0.244898 1.285252 0.632654
v -0.138749 1.147965 0.830344
v 0.089784 1.157379 0.813959
v 0.040825 1.119739 0.905809
v -0.019886 1.081047 1.066849
v -0.113983 1.025840 1.037922
v -0.119832 0.981501 0.981310
v -0.049632 1.097722 0.877327
v 0.094757 1.117700 0.840152
v 0.210012 1.099298 0.812709
v 0.121411 1.045289 1.016338
v -0.074550 0.830477 1.093723
v 0.163587 0.877910 1.113516
v 0.092983 0.896147 1.134750
v -0.032544 0.396942 0.126731
v 0.033182 0.160823 0.131548
v 0.013446 0.161379 0.226691
v -0.050757 0.062026 0.051192
v 0.269089 0.225298 0.235946
v 0.227534 0.062440 0.390487
v 0.227928 0.000000 0.390783
v -0.125286 -0.000000 0.141810
v 0.084133 0.000246 0.064280
v 0.228354 0.000246 0.045490
v 0.259280 0.062341 0.045331
v 0.433610 0.061848 0.133669
v 0.411083 0.000000 0.289832
v 0.411219 0.061848 0.289511
v 0.530241 1.560765 0.045487
v -0.155172 0.886106 -0.064480
v -0.108139 0.685655 0.092015
v 0.530241 1.560765 -0.045487
v -0.002606 0.967520 0.071879
v 0.266611 1.726276 0.059776
v 0.263301 1.726833 -0.131346
v 0.214938 1.790537 -0.274085
v 0.221212 1.938569 -0.246047
v -0.008160 0.396588 -0.151896
v 0.013446 0.161379 -0.226691
v -0.032544 0.396942 -0.126731
v 0.214938 1.790537 0.274085
v 0.221212 1.938569 0.246047
v -0.008160 0.396588 0.151896
v 0.247131 0.155465 0.111535
v 0.255863 0.153690 0.365692
v -0.340901 1.512264 0.000000
v -0.265320 1.181378 0.125865
v -0.221969 1.641773 0.208564
vt 0.473839 0.248903
vt 0.440850 0.244270
vt 0.473839 0.239636
vt 0.108218 0.491739
vt 0.061378 0.468655
vt 0.108218 0.443576
vt 0.363416 0.564528
vt 0.398691 0.540951
vt 0.398691 0.588106
vt 0.068238 0.430170
vt 0.055265 0.410357
vt 0.068238 0.373140
vt 0.988122 0.410916
vt 0.988122 0.435827
vt 0.977750 0.412640
vt 0.561947 0.829547
vt 0.538419 0.810268
vt 0.561947 0.801293
vt 0.211984 0.347683
vt 0.211984 0.368881
vt 0.190249 0.356919
vt 0.919461 0.590575
vt 0.906488 0.553357
vt 0.919461 0.533544
vt 0.783404 0.101618
vt 0.805148 0.063422
vt 0.805148 0.120453
vt 0.965578 0.817250
vt 0.965578 0.853389
vt 0.950807 0.829917
vt 0.929540 0.506057
vt 0.947772 0.482763
vt 0.947772 0.518902
vt 0.860741 0.190644
vt 0.838823 0.169943
vt 0.860741 0.142472
vt 0.916628 0.766067
vt 0.931103 0.725302
vt 0.931103 0.773474
vt 0.930062 0.111594
vt 0.915586 0.070828
vt 0.930062 0.063422
vt 0.808737 0.435468
vt 0.808737 0.492499
vt 0.786993 0.454303
vt 0.966417 0.761441
vt 0.951646 0.748773
vt 0.966417 0.725302
vt 0.401373 0.807900
vt 0.419604 0.795055
vt 0.419604 0.831194
vt 0.861672 0.581716
vt 0.839754 0.554246
vt 0.861672 0.533544
vt 0.619319 0.143963
vt 0.619319 0.207982
vt 0.590368 0.188664
vt 0.007167 0.345038
vt 0.047505 0.308341
vt 0.047505 0.372360
vt 0.157479 0.494988
vt 0.111941 0.469334
vt 0.157479 0.447489
vt 0.427376 0.698448
vt 0.427376 0.742070
vt 0.401373 0.704898
vt 0.406505 0.564355
vt 0.443815 0.532762
vt 0.443815 0.578269
vt 0.854261 0.087470
vt 0.874974 0.063422
vt 0.874974 0.113742
vt 0.629257 0.618895
vt 0.629257 0.683879
vt 0.620010 0.634218
vt 0.262692 0.849069
vt 0.246017 0.823818
vt 0.262692 0.814521
vt 0.797926 0.827969
vt 0.770830 0.820968
vt 0.797926 0.804054
vt 0.907128 0.194836
vt 0.907128 0.236442
vt 0.885129 0.220890
vt 0.327136 0.634565
vt 0.327136 0.692820
vt 0.305568 0.666489
vt 0.815055 0.153334
vt 0.835099 0.142472
vt 0.835099 0.200727
vt 0.551133 0.029035
vt 0.574924 0.008891
vt 0.574924 0.094839
vt 0.158455 0.188716
vt 0.158455 0.282926
vt 0.148684 0.255206
vt 0.525060 0.043451
vt 0.547409 0.008891
vt 0.547409 0.103100
vt 0.465904 0.809721
vt 0.484827 0.779056
vt 0.484827 0.818797
vt 0.578716 0.797980
vt 0.597808 0.788331
vt 0.597808 0.823206
vt 0.944480 0.120862
vt 0.933786 0.080329
vt 0.944480 0.063422
vt 0.134658 0.188716
vt 0.134658 0.244336
vt 0.071962 0.227900
vt 0.067961 0.093547
vt 0.067961 0.158530
vt 0.007167 0.142867
vt 0.294847 0.292020
vt 0.218818 0.284483
vt 0.294847 0.255741
vt 0.071962 0.418195
vt 0.108218 0.373140
vt 0.108218 0.440307
vt 0.447940 0.804098
vt 0.447940 0.835922
vt 0.428381 0.812146
vt 0.817731 0.499800
vt 0.851924 0.495768
vt 0.851924 0.527593
vt 0.877395 0.672835
vt 0.877395 0.722033
vt 0.856392 0.685515
vt 0.354233 0.517911
vt 0.354233 0.555304
vt 0.306380 0.529698
vt 0.478300 0.168805
vt 0.478300 0.236367
vt 0.440850 0.218551
vt 0.545957 0.527713
vt 0.574992 0.511004
vt 0.574992 0.570631
vt 0.671692 0.332929
vt 0.671692 0.415865
vt 0.653222 0.390058
vt 0.294847 0.252472
vt 0.260127 0.232796
vt 0.294847 0.155663
vt 0.343312 0.086542
vt 0.371986 0.055585
vt 0.371986 0.152394
vt 0.715822 0.642417
vt 0.715822 0.678503
vt 0.679357 0.654688
vt 0.043284 0.731371
vt 0.007167 0.715384
vt 0.043284 0.698153
vt 0.615875 0.695300
vt 0.578716 0.674376
vt 0.615875 0.660349
vt 0.434891 0.729679
vt 0.467124 0.708695
vt 0.467124 0.743646
vt 0.873923 0.784455
vt 0.873923 0.821740
vt 0.854525 0.790902
vt 0.924767 0.435468
vt 0.924767 0.477199
vt 0.906006 0.443749
vt 0.923673 0.142472
vt 0.923673 0.189298
vt 0.907500 0.177539
vt 0.165047 0.053201
vt 0.239241 0.008891
vt 0.239241 0.055716
vt 0.468086 0.444379
vt 0.496973 0.443655
vt 0.496973 0.512632
vt 0.314423 0.955627
vt 0.314125 0.990481
vt 0.246316 0.931875
vt 0.314423 0.913901
vt 0.986412 0.155742
vt 0.973457 0.146248
vt 0.986412 0.132533
vt 0.138204 0.566847
vt 0.111941 0.557410
vt 0.138204 0.554735
vt 0.964269 0.046131
vt 0.948890 0.032815
vt 0.964269 0.008891
vt 0.669881 0.431245
vt 0.653222 0.431206
vt 0.669881 0.419134
vt 0.912283 0.138622
vt 0.896493 0.133958
vt 0.912283 0.122774
vt 0.402399 0.450250
vt 0.402399 0.472627
vt 0.392321 0.459478
vt 0.978429 0.603123
vt 0.964097 0.581285
vt 0.978429 0.579019
vt 0.751015 0.714550
vt 0.726174 0.676760
vt 0.751015 0.664123
vt 0.923185 0.539889
vt 0.936530 0.533544
vt 0.936530 0.583971
vt 0.648218 0.852113
vt 0.634676 0.820373
vt 0.648218 0.814359
vt 0.852668 0.672835
vt 0.852668 0.722752
vt 0.830757 0.694845
vt 0.265233 0.538709
vt 0.232764 0.486611
vt 0.265233 0.480126
vt 0.675619 0.669409
vt 0.675619 0.765193
vt 0.669882 0.706826
vt 0.298571 0.220342
vt 0.330524 0.155663
vt 0.330524 0.251447
vt 0.828285 0.235792
vt 0.790007 0.228999
vt 0.828285 0.203996
vt 0.969013 0.787270
vt 0.981501 0.776743
vt 0.981501 0.808538
vt 0.434891 0.696877
vt 0.485929 0.681499
vt 0.485929 0.705426
vt 0.942790 0.714427
vt 0.955031 0.670145
vt 0.955031 0.717515
vt 0.338809 0.149951
vt 0.291199 0.141993
vt 0.338809 0.123838
vt 0.464362 0.254716
vt 0.464362 0.348949
vt 0.437422 0.337878
vt 0.298571 0.391878
vt 0.325765 0.312759
vt 0.325765 0.406992
vt 0.369924 0.219776
vt 0.401663 0.168805
vt 0.401663 0.251447
vt 0.862651 0.484675
vt 0.879911 0.435468
vt 0.879911 0.493557
vt 0.242190 0.844721
vt 0.219778 0.823327
vt 0.242190 0.822383
vt 0.960374 0.602689
vt 0.940254 0.602102
vt 0.960374 0.579019
vt 0.349474 0.399218
vt 0.329489 0.314876
vt 0.349474 0.312759
vt 0.772261 0.215727
vt 0.786283 0.143963
vt 0.786283 0.230109
vt 0.485492 0.846534
vt 0.485492 0.868540
vt 0.474535 0.852235
vt 0.286411 0.880534
vt 0.986217 0.557649
vt 0.974241 0.543269
vt 0.986217 0.533544
vt 0.630952 0.814359
vt 0.630952 0.836697
vt 0.604159 0.827502
vt 0.726174 0.798083
vt 0.751905 0.787089
vt 0.751905 0.814033
vt 0.484827 0.843265
vt 0.459855 0.834336
vt 0.484827 0.822066
vt 0.198490 0.867315
vt 0.198490 0.967234
vt 0.185509 0.890077
vt 0.038071 0.952318
vt 0.080294 0.876927
vt 0.080294 0.954116
vt 0.397649 0.663889
vt 0.363416 0.647968
vt 0.397649 0.623087
vt 0.902450 0.697609
vt 0.921997 0.670145
vt 0.921997 0.710947
vt 0.044889 0.817697
vt 0.044889 0.850847
vt 0.030989 0.842202
vt 0.826928 0.788154
vt 0.826928 0.820538
vt 0.805832 0.793044
vt 0.770830 0.848292
vt 0.793207 0.831238
vt 0.793207 0.850392
vt 0.694222 0.209443
vt 0.670766 0.159860
vt 0.694222 0.143963
vt 0.726174 0.632640
vt 0.751839 0.607165
vt 0.751839 0.660854
vt 0.148684 0.295234
vt 0.157290 0.286195
vt 0.157290 0.322301
vt 0.487477 0.168805
vt 0.487477 0.207253
vt 0.482024 0.179563
vt 0.969733 0.132533
vt 0.969733 0.175079
vt 0.958109 0.138010
vt 0.962368 0.271289
vt 0.962368 0.317736
vt 0.950607 0.312490
vt 0.487208 0.589277
vt 0.495736 0.555889
vt 0.495736 0.598364
vt 0.892770 0.128903
vt 0.878698 0.095332
vt 0.892770 0.063422
vt 0.947922 0.725302
vt 0.947922 0.773192
vt 0.934827 0.739318
vt 0.463261 0.352218
vt 0.463261 0.416835
vt 0.448140 0.370821
vt 0.254249 0.422919
vt 0.254249 0.434555
vt 0.232334 0.427411
vt 0.396061 0.863926
vt 0.382886 0.836222
vt 0.396061 0.834946
vt 0.578716 0.831699
vt 0.594213 0.826475
vt 0.594213 0.855456
vt 0.970141 0.729929
vt 0.979357 0.725302
vt 0.979357 0.758840
vt 0.492873 0.356207
vt 0.468086 0.295365
vt 0.492873 0.254716
vt 0.535012 0.591386
vt 0.502216 0.579235
vt 0.535012 0.543223
vt 0.670766 0.228696
vt 0.719600 0.212712
vt 0.719600 0.243962
vt 0.786993 0.537993
vt 0.814007 0.495768
vt 0.814007 0.541520
vt 0.776837 0.673226
vt 0.802108 0.672835
vt 0.802108 0.721264
vt 0.071962 0.361322
vt 0.186525 0.347683
vt 0.186525 0.369871
vt 0.405420 0.085131
vt 0.431405 0.055585
vt 0.431405 0.156518
vt 0.623043 0.163306
vt 0.644848 0.143963
vt 0.644848 0.218906
vt 0.388918 0.047381
vt 0.322718 0.017863
vt 0.388918 0.008891
vt 0.533127 0.359476
vt 0.533127 0.432199
vt 0.502216 0.404901
vt 0.692268 0.479517
vt 0.713024 0.435468
vt 0.713024 0.508191
vt 0.188818 0.779646
vt 0.216001 0.758268
vt 0.216001 0.792242
vt 0.604743 0.481016
vt 0.641628 0.435468
vt 0.641628 0.482968
vt 0.703389 0.757765
vt 0.720920 0.724015
vt 0.720920 0.779899
vt 0.670617 0.068570
vt 0.642830 0.020370
vt 0.670617 0.008891
vt 0.402781 0.310627
vt 0.353743 0.296050
vt 0.402781 0.254716
vt 0.790551 0.546998
vt 0.790551 0.601772
vt 0.767225 0.549746
vt 0.007167 0.262258
vt 0.058615 0.250543
vt 0.058615 0.305316
vt 0.779247 0.293724
vt 0.799071 0.241102
vt 0.799071 0.303503
vt 0.292040 0.476856
vt 0.232764 0.457729
vt 0.292040 0.438648
vt 0.805832 0.692330
vt 0.827033 0.672835
vt 0.827033 0.728275
vt 0.903776 0.142472
vt 0.903776 0.191567
vt 0.885129 0.154546
vt 0.833135 0.022077
vt 0.854676 0.008891
vt 0.854676 0.057985
vt 0.263045 0.596206
vt 0.232764 0.572643
vt 0.263045 0.541978
vt 0.521336 0.048824
vt 0.464030 0.029139
vt 0.521336 0.008891
vt 0.912455 0.272824
vt 0.931159 0.241102
vt 0.931159 0.281036
vt 0.980321 0.063422
vt 0.980321 0.095106
vt 0.967689 0.080474
vt 0.213405 0.624226
vt 0.228644 0.603173
vt 0.228644 0.634857
vt 0.850021 0.786654
vt 0.850021 0.823373
vt 0.830757 0.820916
vt 0.447545 0.537985
vt 0.496973 0.515901
vt 0.496973 0.552620
vt 0.157123 0.668232
vt 0.104984 0.659539
vt 0.157123 0.642941
vt 0.095497 0.698418
vt 0.095497 0.723362
vt 0.048806 0.701214
vt 0.392182 0.712762
vt 0.392182 0.751368
vt 0.363416 0.718962
vt 0.198827 0.637693
vt 0.198827 0.673412
vt 0.160847 0.653949
vt 0.630643 0.792510
vt 0.604159 0.779022
vt 0.630643 0.759926
vt 0.574222 0.832816
vt 0.574222 0.856791
vt 0.557266 0.834410
vt 0.870533 0.853203
vt 0.854525 0.830168
vt 0.870533 0.825009
vt 0.768539 0.332929
vt 0.768539 0.387483
vt 0.743347 0.369995
vt 0.301072 0.540593
vt 0.301072 0.592015
vt 0.268956 0.545310
vt 0.068354 0.777021
vt 0.048806 0.749493
vt 0.068354 0.726631
vt 0.858400 0.019332
vt 0.878709 0.008891
vt 0.878709 0.059281
vt 0.219778 0.739178
vt 0.242293 0.736379
vt 0.242293 0.780125
vt 0.578716 0.781460
vt 0.599850 0.739594
vt 0.599850 0.785062
vt 0.902668 0.008891
vt 0.902668 0.054680
vt 0.882432 0.048228
vt 0.031110 0.694884
vt 0.007167 0.680817
vt 0.031110 0.640137
vt 0.800385 0.635628
vt 0.822322 0.607165
vt 0.822322 0.661913
vt 0.538419 0.751852
vt 0.561746 0.724254
vt 0.561746 0.767876
vt 0.542520 0.395718
vt 0.570972 0.332255
vt 0.570972 0.406524
vt 0.699600 0.252388
vt 0.699600 0.329660
vt 0.680180 0.257373
vt 0.743563 0.522987
vt 0.743563 0.603896
vt 0.726174 0.528148
vt 0.261634 0.365066
vt 0.292040 0.354469
vt 0.292040 0.435379
vt 0.726174 0.733236
vt 0.764899 0.717819
vt 0.764899 0.746538
vt 0.699665 0.805628
vt 0.670579 0.803764
vt 0.699665 0.777674
vt 0.180868 0.740635
vt 0.180868 0.787081
vt 0.160847 0.768466
vt 0.805832 0.831963
vt 0.820441 0.823807
vt 0.820441 0.856724
vt 0.879911 0.496826
vt 0.879911 0.530044
vt 0.855681 0.512013
vt 0.428381 0.779711
vt 0.461334 0.774693
vt 0.461334 0.800829
vt 0.359607 0.805515
vt 0.328326 0.789967
vt 0.359607 0.779575
vt 0.600267 0.254716
vt 0.600267 0.330589
vt 0.574696 0.317591
vt 0.656008 0.324427
vt 0.676456 0.253787
vt 0.676456 0.329660
vt 0.694875 0.410088
vt 0.675416 0.403784
vt 0.694875 0.332929
vt 0.603991 0.323308
vt 0.626755 0.254716
vt 0.626755 0.331876
vt 0.104360 0.263229
vt 0.143608 0.247605
vt 0.143608 0.319049
vt 0.834146 0.321492
vt 0.834146 0.389693
vt 0.818051 0.325636
vt 0.429242 0.695179
vt 0.422112 0.680169
vt 0.429242 0.666842
vt 0.401102 0.401778
vt 0.401102 0.419540
vt 0.384406 0.412493
vt 0.718510 0.332929
vt 0.718510 0.405945
vt 0.698599 0.401033
vt 0.619984 0.416085
vt 0.619984 0.432199
vt 0.536851 0.429867
vt 0.228610 0.504973
vt 0.228610 0.583758
vt 0.218818 0.509988
vt 0.923670 0.138622
vt 0.916007 0.126633
vt 0.923670 0.119299
vt 0.937652 0.381526
vt 0.937652 0.406280
vt 0.927113 0.396112
vt 0.652045 0.848229
vt 0.664191 0.841254
vt 0.664191 0.866007
vt 0.888303 0.308194
vt 0.874324 0.244532
vt 0.888303 0.241102
vt 0.418388 0.623087
vt 0.418388 0.695179
vt 0.401373 0.632089
vt 0.067766 0.161799
vt 0.067766 0.240584
vt 0.051552 0.169912
vt 0.952418 0.646437
vt 0.952418 0.663488
vt 0.935694 0.656218
vt 0.981729 0.479494
vt 0.969701 0.464062
vt 0.981729 0.449929
vt 0.094832 0.548384
vt 0.108218 0.536759
vt 0.108218 0.566324
vt 0.975777 0.211413
vt 0.961317 0.193760
vt 0.975777 0.183172
vt 0.935084 0.844803
vt 0.946523 0.830268
vt 0.946523 0.858508
vt 0.123033 0.826495
vt 0.123033 0.854832
vt 0.108059 0.843028
vt 0.448342 0.839191
vt 0.448342 0.859040
vt 0.428381 0.847247
vt 0.625963 0.856957
vt 0.604159 0.842329
vt 0.625963 0.839966
vt 0.931360 0.847382
vt 0.910060 0.842420
vt 0.931360 0.827229
vt 0.171838 0.845910
vt 0.190401 0.839698
vt 0.190401 0.859850
vt 0.522643 0.640678
vt 0.447545 0.628217
vt 0.522643 0.621333
vt 0.928491 0.475552
vt 0.937489 0.410916
vt 0.937489 0.477199
vt 0.736607 0.507696
vt 0.716748 0.498208
vt 0.736607 0.435468
vt 0.802795 0.309992
vt 0.818825 0.241102
vt 0.818825 0.313330
vt 0.938420 0.189298
vt 0.927396 0.143281
vt 0.938420 0.132533
vt 0.156923 0.770178
vt 0.137473 0.761131
vt 0.156923 0.717316
vt 0.240097 0.243374
vt 0.255902 0.198241
vt 0.255902 0.251103
vt 0.916628 0.812986
vt 0.931360 0.776743
vt 0.931360 0.823960
vt 0.043407 0.488808
vt 0.043407 0.540370
vt 0.007167 0.518719
vt 0.705309 0.008891
vt 0.705309 0.059147
vt 0.674341 0.015334
vt 0.934883 0.244469
vt 0.946883 0.230780
vt 0.946883 0.281036
vt 0.718249 0.431217
vt 0.675416 0.419214
vt 0.718249 0.413357
vt 0.392873 0.709493
vt 0.363416 0.696977
vt 0.392873 0.667158
vt 0.384208 0.831677
vt 0.363416 0.821848
vt 0.384208 0.799663
vt 0.389424 0.759532
vt 0.396731 0.754637
vt 0.396731 0.786651
vt 0.814327 0.332929
vt 0.814327 0.389693
vt 0.793003 0.369050
vt 0.958310 0.538565
vt 0.970517 0.533544
vt 0.970517 0.574228
vt 0.879957 0.204434
vt 0.879957 0.237488
vt 0.867916 0.232168
vt 0.957593 0.221582
vt 0.942144 0.213316
vt 0.957593 0.183172
vt 0.941213 0.426228
vt 0.957031 0.410916
vt 0.957031 0.449326
vt 0.296471 0.819974
vt 0.317064 0.816563
vt 0.317064 0.843513
vt 0.850021 0.847681
vt 0.829441 0.830115
vt 0.850021 0.826642
vt 0.363416 0.850315
vt 0.379162 0.834946
vt 0.379162 0.860143
vt 0.965289 0.776743
vt 0.965289 0.813981
vt 0.950807 0.793507
vt 0.911862 0.119505
vt 0.896493 0.083392
vt 0.911862 0.063422
vt 0.532535 0.312214
vt 0.532535 0.355880
vt 0.496597 0.333725
vt 0.041490 0.636868
vt 0.007167 0.618528
vt 0.041490 0.595071
vt 0.846370 0.288037
vt 0.822549 0.269509
vt 0.846370 0.241102
vt 0.051521 0.434306
vt 0.051521 0.485539
vt 0.007167 0.459331
vt 0.305568 0.737144
vt 0.324602 0.730838
vt 0.324602 0.782071
vt 0.214351 0.570615
vt 0.214351 0.599904
vt 0.160847 0.590337
vt 0.048806 0.682954
vt 0.092925 0.665860
vt 0.092925 0.695149
vt 0.358075 0.558573
vt 0.358075 0.614656
vt 0.330860 0.581823
vt 0.385700 0.796393
vt 0.363416 0.781630
vt 0.385700 0.754637
vt 0.428381 0.771208
vt 0.467124 0.746915
vt 0.467124 0.771424
vt 0.862692 0.422536
vt 0.890602 0.390539
vt 0.890602 0.424551
vt 0.882336 0.533544
vt 0.882336 0.592138
vt 0.865396 0.572563
vt 0.877821 0.619500
vt 0.893984 0.607165
vt 0.893984 0.665759
vt 0.573643 0.724254
vt 0.573643 0.764554
vt 0.565470 0.747176
vt 0.215823 0.639201
vt 0.215823 0.673412
vt 0.202551 0.652407
vt 0.025247 0.734640
vt 0.025247 0.787982
vt 0.007167 0.780350
vt 0.899332 0.336421
vt 0.913928 0.321492
vt 0.913928 0.374833
vt 0.766814 0.819359
vt 0.766814 0.853571
vt 0.751490 0.839215
vt 0.067766 0.243854
vt 0.067766 0.290139
vt 0.062485 0.266607
vt 0.870600 0.241102
vt 0.870600 0.292044
vt 0.850094 0.277374
vt 0.755563 0.672126
vt 0.773113 0.607165
vt 0.773113 0.679432
vt 0.388597 0.475027
vt 0.306380 0.453881
vt 0.388597 0.450250
vt 0.324602 0.785340
vt 0.324602 0.813294
vt 0.296471 0.811282
vt 0.649498 0.332929
vt 0.649498 0.417178
vt 0.630479 0.357697
vt 0.054165 0.574270
vt 0.047131 0.572831
vt 0.054552 0.494234
vt 0.205952 0.067781
vt 0.205952 0.152394
vt 0.162179 0.076059
vt 0.384406 0.313945
vt 0.401765 0.313896
vt 0.401765 0.398509
vt 0.402781 0.446981
vt 0.306380 0.437938
vt 0.402781 0.423049
vt 0.492548 0.111399
vt 0.519681 0.055585
vt 0.519681 0.140693
vt 0.578716 0.716541
vt 0.609659 0.698569
vt 0.609659 0.736325
vt 0.144951 0.498257
vt 0.144951 0.551466
vt 0.111941 0.536594
vt 0.214403 0.461517
vt 0.214403 0.532597
vt 0.187436 0.467573
vt 0.111941 0.373538
vt 0.145965 0.373140
vt 0.145965 0.444220
vt 0.747264 0.143963
vt 0.747264 0.222340
vt 0.730026 0.147114
vt 0.426625 0.584525
vt 0.443815 0.581538
vt 0.443815 0.659916
vt 0.719710 0.825373
vt 0.703389 0.788769
vt 0.719710 0.783168
vt 0.940254 0.545144
vt 0.954587 0.533544
vt 0.954587 0.575750
vt 0.027265 0.817697
vt 0.027265 0.846213
vt 0.008464 0.841690
vt 0.489570 0.849578
vt 0.504132 0.829346
vt 0.504132 0.857862
vt 0.064625 0.846020
vt 0.048806 0.815420
vt 0.064625 0.809161
vt 0.948204 0.069709
vt 0.963966 0.063422
vt 0.963966 0.100281
vt 0.302126 0.480126
vt 0.302126 0.537324
vt 0.268956 0.520643
vt 0.837870 0.348914
vt 0.858968 0.321492
vt 0.858968 0.371387
vt 0.158455 0.124979
vt 0.071962 0.112884
vt 0.158455 0.067781
vt 0.047828 0.247274
vt 0.007167 0.242579
vt 0.047828 0.161799
vt 0.935694 0.607341
vt 0.953005 0.607165
vt 0.953005 0.643168
vt 0.154964 0.773447
vt 0.154964 0.816896
vt 0.137473 0.781136
vt 0.737966 0.008891
vt 0.737966 0.056947
vt 0.709033 0.021694
vt 0.675633 0.628862
vt 0.643671 0.585151
vt 0.675633 0.580484
vt 0.067365 0.308586
vt 0.067365 0.365949
vt 0.052205 0.319437
vt 0.830757 0.729781
vt 0.847668 0.726021
vt 0.847668 0.783385
vt 0.071962 0.030569
vt 0.161323 0.008891
vt 0.161323 0.064512
vt 0.161203 0.480951
vt 0.183506 0.447489
vt 0.183506 0.528876
vt 0.902765 0.587595
vt 0.886060 0.583193
vt 0.902765 0.533544
vt 0.898726 0.670145
vt 0.898726 0.722033
vt 0.881119 0.670239
vt 0.274693 0.663678
vt 0.219778 0.658436
vt 0.274693 0.639243
vt 0.656859 0.140693
vt 0.623761 0.128579
vt 0.656859 0.089756
vt 0.090357 0.630879
vt 0.048806 0.629603
vt 0.090357 0.594049
vt 0.720775 0.639148
vt 0.679357 0.606604
vt 0.720775 0.603415
vt 0.359692 0.478296
vt 0.359692 0.514642
vt 0.306380 0.500828
vt 0.344405 0.696089
vt 0.344405 0.727569
vt 0.305568 0.714972
vt 0.800126 0.140308
vt 0.755738 0.125728
vt 0.800126 0.124993
vt 0.216001 0.795511
vt 0.216001 0.810821
vt 0.171838 0.795723
vt 0.215094 0.255741
vt 0.215094 0.341689
vt 0.206986 0.322275
vt 0.864193 0.235792
vt 0.832009 0.224881
vt 0.864193 0.204434
vt 0.726302 0.143963
vt 0.726302 0.196371
vt 0.697946 0.177301
vt 0.444416 0.352218
vt 0.444416 0.419780
vt 0.406505 0.379295
vt 0.339588 0.120569
vt 0.291199 0.061610
vt 0.339588 0.055585
vt 0.318994 0.008891
vt 0.318994 0.045170
vt 0.242965 0.016428
vt 0.051312 0.431037
vt 0.007167 0.430733
vt 0.051312 0.375874
vt 0.328326 0.812311
vt 0.349550 0.808784
vt 0.349550 0.838112
vt 0.640673 0.516523
vt 0.604743 0.490473
vt 0.640672 0.486237
vt 0.295061 0.769788
vt 0.274059 0.757108
vt 0.295061 0.720590
vt 0.583666 0.121231
vt 0.620037 0.091496
vt 0.620037 0.140693
vt 0.392641 0.014094
vt 0.460306 0.008891
vt 0.460306 0.046284
vt 0.610071 0.051809
vt 0.639106 0.008891
vt 0.639106 0.068518
vt 0.667042 0.226899
vt 0.648572 0.169770
vt 0.667042 0.143963
vt 0.287475 0.055585
vt 0.287475 0.152394
vt 0.252754 0.075262
vt 0.071962 0.313458
vt 0.100636 0.247605
vt 0.100636 0.344414
vt 0.485929 0.643947
vt 0.485929 0.678230
vt 0.447545 0.656863
vt 0.826791 0.428471
vt 0.793003 0.413515
vt 0.826791 0.392962
vt 0.489653 0.657753
vt 0.526228 0.643947
vt 0.526228 0.679455
vt 0.192827 0.737365
vt 0.160847 0.722956
vt 0.192827 0.702138
vt 0.868347 0.117441
vt 0.868347 0.135650
vt 0.828625 0.130642
vt 0.156690 0.713233
vt 0.137928 0.704952
vt 0.156690 0.671502
vt 0.925816 0.529588
vt 0.909644 0.494522
vt 0.925816 0.482763
vt 0.162179 0.200756
vt 0.236373 0.198241
vt 0.236373 0.245067
vt 0.557757 0.212216
vt 0.586644 0.143963
vt 0.586644 0.212939
vt 0.402938 0.921886
vt 0.334831 0.945639
vt 0.402639 0.887033
vt 0.402938 0.963612
vt 0.985032 0.635188
vt 0.985032 0.658397
vt 0.972077 0.644682
vt 0.982513 0.128462
vt 0.969745 0.123874
vt 0.982513 0.103550
vt 0.965987 0.230780
vt 0.965987 0.268020
vt 0.950607 0.244096
vt 0.736030 0.431732
vt 0.722234 0.431699
vt 0.736030 0.417108
vt 0.783014 0.527882
vt 0.783014 0.543729
vt 0.767225 0.532545
vt 0.986457 0.719895
vt 0.976380 0.710667
vt 0.986457 0.697519
vt 0.983418 0.255983
vt 0.969711 0.235097
vt 0.983418 0.230780
vt 0.797339 0.008891
vt 0.797339 0.059318
vt 0.772498 0.046681
vt 0.925721 0.714227
vt 0.939066 0.670145
vt 0.939066 0.720572
vt 0.215898 0.814090
vt 0.215898 0.851845
vt 0.202356 0.845831
vt 0.850537 0.113339
vt 0.828625 0.091328
vt 0.850537 0.063422
vt 0.395445 0.537682
vt 0.363416 0.486287
vt 0.395445 0.478296
vt 0.923389 0.417276
vt 0.917651 0.379859
vt 0.923389 0.321492
vt 0.334248 0.186768
vt 0.366200 0.155663
vt 0.366200 0.251447
vt 0.489653 0.701705
vt 0.518711 0.682724
vt 0.518711 0.724609
vt 0.967993 0.030159
vt 0.980481 0.008891
vt 0.980481 0.040686
vt 0.564199 0.720985
vt 0.538419 0.681383
vt 0.564199 0.673615
vt 0.942144 0.135621
vt 0.954386 0.132533
vt 0.954386 0.179903
vt 0.134204 0.714047
vt 0.104984 0.709163
vt 0.134204 0.671502
vt 0.380682 0.408129
vt 0.353743 0.324967
vt 0.380682 0.313896
vt 0.406505 0.269830
vt 0.433698 0.254716
vt 0.433698 0.348949
vt 0.405387 0.200477
vt 0.437126 0.168805
vt 0.437126 0.251447
vt 0.613383 0.707451
vt 0.630643 0.698569
vt 0.630643 0.756657
vt 0.789030 0.409215
vt 0.789030 0.431553
vt 0.766618 0.430609
vt 0.357810 0.692555
vt 0.330860 0.691768
vt 0.357810 0.674883
vt 0.104360 0.337101
vt 0.202139 0.326742
vt 0.202139 0.344414
vt 0.769248 0.449851
vt 0.783269 0.435468
vt 0.783269 0.521615
vt 0.470811 0.868540
vt 0.459855 0.862839
vt 0.470811 0.846534
vt 0.374926 0.996979
vt 0.988355 0.670145
vt 0.988355 0.694250
vt 0.976380 0.684526
vt 0.198632 0.836429
vt 0.171838 0.823285
vt 0.198632 0.814090
vt 0.905245 0.812287
vt 0.877647 0.798957
vt 0.905245 0.787165
vt 0.740331 0.503645
vt 0.761403 0.493292
vt 0.761403 0.518414
vt 0.224169 0.984719
vt 0.211188 0.961958
vt 0.224169 0.884801
vt 0.120213 0.887294
vt 0.162435 0.885497
vt 0.162435 0.962686
vt 0.675633 0.666140
vt 0.634562 0.647039
vt 0.675633 0.632131
vt 0.743347 0.404090
vt 0.762894 0.390752
vt 0.762894 0.431553
vt 0.972656 0.703295
vt 0.958755 0.678789
vt 0.972656 0.670145
vt 0.044131 0.795273
vt 0.044131 0.814428
vt 0.008464 0.803540
vt 0.719710 0.828642
vt 0.719710 0.848398
vt 0.698014 0.846362
vt 0.684039 0.075213
vt 0.684039 0.140693
vt 0.660583 0.124796
vt 0.330860 0.646139
vt 0.356526 0.617925
vt 0.356526 0.671614
vt 0.159508 0.822578
vt 0.168114 0.795511
vt 0.168114 0.831617
vt 0.487477 0.248970
vt 0.482024 0.238213
vt 0.487477 0.210523
vt 0.968353 0.649711
vt 0.956729 0.644235
vt 0.968353 0.607165
vt 0.292298 0.831563
vt 0.280537 0.790361
vt 0.292298 0.785116
vt 0.034834 0.649224
vt 0.043362 0.640137
vt 0.043362 0.682612
vt 0.895608 0.321492
vt 0.895608 0.386973
vt 0.881536 0.355063
vt 0.945166 0.056781
vt 0.932071 0.042765
vt 0.945166 0.008891
vt 0.877812 0.386109
vt 0.862692 0.367506
vt 0.877812 0.321492
vt 0.904934 0.298422
vt 0.904934 0.318178
vt 0.892027 0.301068
vt 0.982020 0.847271
vt 0.969302 0.820528
vt 0.982020 0.817250
vt 0.654580 0.086487
vt 0.623761 0.082303
vt 0.654580 0.071914
vt 0.936971 0.313215
vt 0.946187 0.284305
vt 0.946187 0.317843
vt 0.488824 0.055585
vt 0.488824 0.157076
vt 0.464037 0.116428
vt 0.039964 0.543639
vt 0.039964 0.591802
vt 0.007167 0.555790
vt 0.160847 0.618440
vt 0.209681 0.603173
vt 0.209681 0.634423
vt 0.274059 0.675096
vt 0.301072 0.671569
vt 0.301072 0.717321
vt 0.216005 0.698869
vt 0.160847 0.677534
vt 0.216005 0.676681
vt 0.460313 0.055585
vt 0.460313 0.156518
vt 0.435129 0.154639
vt 0.375710 0.126972
vt 0.401696 0.055585
vt 0.401696 0.156518
vt 0.630479 0.310316
vt 0.652284 0.254716
vt 0.652284 0.329660
vt 0.257910 0.419650
vt 0.218818 0.402218
vt 0.257910 0.354469
vt 0.554033 0.216685
vt 0.523121 0.171260
vt 0.554033 0.143963
vt 0.306380 0.587247
vt 0.327136 0.558573
vt 0.327136 0.631296
vt 0.133749 0.759192
vt 0.133749 0.786175
vt 0.099524 0.770316
vt 0.632726 0.520124
vt 0.632726 0.552564
vt 0.578716 0.549705
vt 0.856392 0.747436
vt 0.873923 0.725302
vt 0.873923 0.781186
vt 0.090357 0.590780
vt 0.059660 0.537531
vt 0.090357 0.536759
vt 0.267856 0.295289
vt 0.267856 0.351200
vt 0.218818 0.309866
vt 0.271580 0.300232
vt 0.294432 0.295289
vt 0.294432 0.351200
vt 0.298571 0.297775
vt 0.350019 0.254716
vt 0.350019 0.309490
vt 0.776837 0.616945
vt 0.796661 0.607165
vt 0.796661 0.669566
vt 0.502216 0.448623
vt 0.543080 0.435468
vt 0.543080 0.490893
vt 0.812460 0.471414
vt 0.833662 0.435468
vt 0.833662 0.490909
vt 0.902282 0.484563
vt 0.883635 0.472489
vt 0.902282 0.435468
vt 0.837386 0.471376
vt 0.858927 0.435468
vt 0.858927 0.484563
vt 0.675633 0.522987
vt 0.675633 0.577215
vt 0.645352 0.546550
vt 0.496597 0.269627
vt 0.538797 0.254716
vt 0.538797 0.308945
vt 0.240690 0.819114
vt 0.219778 0.818858
vt 0.240690 0.783394
vt 0.978724 0.302973
vt 0.966092 0.285921
vt 0.978724 0.271289
vt 0.755563 0.693332
vt 0.770803 0.682701
vt 0.770803 0.714385
vt 0.822549 0.308052
vt 0.863943 0.296242
vt 0.863943 0.313330
vt 0.541850 0.494162
vt 0.541850 0.539954
vt 0.502216 0.528219
vt 0.741690 0.017513
vt 0.768774 0.008891
vt 0.768774 0.057578
vt 0.829411 0.008891
vt 0.829411 0.049974
vt 0.801063 0.010588
vt 0.133749 0.755923
vt 0.104984 0.749723
vt 0.133749 0.717316
vt 0.574992 0.633253
vt 0.574992 0.670346
vt 0.538419 0.648907
vt 0.570525 0.798024
vt 0.538419 0.781673
vt 0.570525 0.771145
vt 0.538419 0.839732
vt 0.553542 0.832816
vt 0.553542 0.859695
vt 0.112850 0.630157
vt 0.096124 0.606087
vt 0.112850 0.603173
vt 0.765524 0.490023
vt 0.740331 0.452956
vt 0.765524 0.435468
vt 0.636489 0.555833
vt 0.636489 0.584418
vt 0.578716 0.564318
vt 0.091625 0.726631
vt 0.091625 0.777021
vt 0.072078 0.754160
vt 0.679357 0.763963
vt 0.699665 0.724015
vt 0.699665 0.774405
vt 0.349988 0.730838
vt 0.349988 0.776306
vt 0.328326 0.736909
vt 0.246017 0.739982
vt 0.267151 0.736379
vt 0.267151 0.781847
vt 0.618016 0.233437
vt 0.667042 0.230168
vt 0.667042 0.249067
vt 0.779680 0.063422
vt 0.779680 0.118169
vt 0.755738 0.077489
vt 0.794275 0.573282
vt 0.816212 0.546998
vt 0.816212 0.601745
vt 0.776837 0.740557
vt 0.800164 0.724533
vt 0.800164 0.768155
vt 0.542520 0.265523
vt 0.570972 0.254716
vt 0.570972 0.328986
vt 0.707183 0.140693
vt 0.687763 0.135708
vt 0.707183 0.063422
vt 0.739623 0.413839
vt 0.722234 0.408677
vt 0.739623 0.332929
vt 0.468086 0.429789
vt 0.498492 0.359476
vt 0.498492 0.440386
vt 0.664356 0.749476
vt 0.634562 0.724009
vt 0.664356 0.712148
vt 0.080564 0.805892
vt 0.048806 0.803856
vt 0.080564 0.780290
vt 0.421394 0.791786
vt 0.401373 0.763955
vt 0.421394 0.745339
vt 0.510818 0.848463
vt 0.525427 0.823703
vt 0.525427 0.856619
vt 0.276813 0.785116
vt 0.276813 0.811252
vt 0.246017 0.804419
vt 0.800164 0.800785
vt 0.770830 0.775890
vt 0.800164 0.771424
vt 0.775376 0.327815
vt 0.749662 0.315035
vt 0.775376 0.296259
vt 0.600267 0.409730
vt 0.574696 0.346856
vt 0.600267 0.333858
vt 0.668096 0.440701
vt 0.688544 0.435468
vt 0.688544 0.511341
vt 0.698815 0.522987
vt 0.698815 0.600146
vt 0.679357 0.529291
vt 0.603991 0.343713
vt 0.626755 0.335145
vt 0.626755 0.412305
vt 0.162179 0.304156
vt 0.201427 0.248336
vt 0.201427 0.319779
vt 0.836030 0.601745
vt 0.819936 0.597602
vt 0.836030 0.533544
vt 0.396555 0.789921
vt 0.396555 0.818257
vt 0.389424 0.804930
vt 0.329489 0.411053
vt 0.347723 0.402487
vt 0.347723 0.418749
vt 0.722450 0.596003
vt 0.702539 0.527898
vt 0.722450 0.522987
vt 0.282725 0.667786
vt 0.301072 0.595284
vt 0.301072 0.668300
vt 0.228610 0.501704
vt 0.218818 0.496689
vt 0.228610 0.422919
vt 0.156338 0.541827
vt 0.156338 0.561150
vt 0.148675 0.553816
vt 0.168114 0.859640
vt 0.157574 0.845054
vt 0.168114 0.834886
vt 0.972077 0.624944
vt 0.984223 0.607165
vt 0.984223 0.631919
vt 0.484827 0.708695
vt 0.484827 0.775787
vt 0.470848 0.772358
vt 0.789279 0.405020
vt 0.772263 0.396019
vt 0.789279 0.332929
vt 0.763501 0.601772
vt 0.747287 0.593659
vt 0.763501 0.522987
vt 0.767152 0.219498
vt 0.767152 0.237139
vt 0.750988 0.228951
vt 0.981729 0.482763
vt 0.981729 0.512328
vt 0.969701 0.498194
vt 0.401373 0.852402
vt 0.414758 0.834463
vt 0.414758 0.864028
vt 0.975863 0.321492
vt 0.975863 0.349733
vt 0.961403 0.339145
vt 0.348129 0.709795
vt 0.359569 0.696089
vt 0.359569 0.724329
vt 0.104335 0.854832
vt 0.089361 0.838299
vt 0.104335 0.826495
vt 0.779247 0.316812
vt 0.798006 0.306772
vt 0.798006 0.327894
vt 0.350131 0.841381
vt 0.350131 0.858372
vt 0.328326 0.856008
vt 0.948204 0.116258
vt 0.966021 0.103550
vt 0.966021 0.127641
vt 0.861205 0.602425
vt 0.839754 0.592164
vt 0.861205 0.584985
vt 0.724977 0.319480
vt 0.703324 0.315887
vt 0.724977 0.252388
vt 0.757816 0.751455
vt 0.766814 0.749807
vt 0.766814 0.816090
vt 0.730766 0.063422
vt 0.730766 0.135650
vt 0.710906 0.072910
vt 0.808872 0.066760
vt 0.824901 0.063422
vt 0.824901 0.135650
vt 0.938137 0.321492
vt 0.938137 0.378257
vt 0.927113 0.367509
vt 0.216001 0.702138
vt 0.216001 0.754999
vt 0.196551 0.711185
vt 0.897708 0.614894
vt 0.913514 0.607165
vt 0.913514 0.660027
vt 0.917238 0.618140
vt 0.931970 0.607165
vt 0.931970 0.654383
vt 0.059660 0.504480
vt 0.108218 0.495008
vt 0.108218 0.533490
vt 0.634421 0.587687
vt 0.634421 0.615626
vt 0.578716 0.599278
vt 0.935084 0.813310
vt 0.947083 0.776743
vt 0.947083 0.826999
vt 0.510818 0.785128
vt 0.530920 0.782380
vt 0.530920 0.820434
vt 0.634562 0.701392
vt 0.666158 0.669409
vt 0.666158 0.708879
vt 0.933247 0.284305
vt 0.933247 0.316319
vt 0.912455 0.294134
vt 0.714450 0.708892
vt 0.721757 0.681772
vt 0.721757 0.713787
vt 0.811331 0.200727
vt 0.790007 0.164606
vt 0.811331 0.143963
vt 0.522435 0.718387
vt 0.534641 0.682724
vt 0.534641 0.723408
vt 0.270309 0.732560
vt 0.258268 0.704826
vt 0.270309 0.699506
vt 0.957309 0.363171
vt 0.957309 0.401580
vt 0.941860 0.371437
vt 0.941860 0.344590
vt 0.957679 0.321492
vt 0.957679 0.359902
vt 0.896346 0.815556
vt 0.896346 0.845235
vt 0.877647 0.823861
vt 0.961792 0.452595
vt 0.961792 0.473634
vt 0.941213 0.470160
vt 0.276552 0.844660
vt 0.292298 0.834832
vt 0.292298 0.860029
vt 0.965977 0.520001
vt 0.951495 0.503237
vt 0.965977 0.482763
vt 0.912904 0.725302
vt 0.912904 0.781385
vt 0.897535 0.761415
vt 0.483484 0.599556
vt 0.447545 0.578044
vt 0.483484 0.555889
vt 0.578716 0.644570
vt 0.616286 0.618895
vt 0.616286 0.657080
vt 0.849867 0.607165
vt 0.849867 0.654101
vt 0.826046 0.625694
vt 0.450859 0.474282
vt 0.406505 0.449257
vt 0.450859 0.423049
vt 0.510818 0.772805
vt 0.529852 0.727878
vt 0.529852 0.779111
vt 0.157123 0.599904
vt 0.103619 0.580183
vt 0.157123 0.570615
vt 0.219778 0.679143
vt 0.263897 0.666948
vt 0.263897 0.696237
vt 0.574992 0.629983
vt 0.547778 0.606734
vt 0.574992 0.573901
vt 0.905920 0.487832
vt 0.905920 0.529588
vt 0.883635 0.502596
vt 0.754092 0.749807
vt 0.754092 0.783820
vt 0.726174 0.783664
vt 0.634562 0.754760
vt 0.662472 0.752745
vt 0.662472 0.786757
vt 0.881405 0.201066
vt 0.864465 0.162048
vt 0.881405 0.142472
vt 0.877647 0.771561
vt 0.893811 0.725302
vt 0.893811 0.783896
vt 0.156848 0.538558
vt 0.148675 0.515635
vt 0.156848 0.498257
vt 0.974027 0.445128
vt 0.960755 0.431921
vt 0.974027 0.410916
vt 0.823912 0.784885
vt 0.805832 0.739176
vt 0.823912 0.731544
vt 0.899332 0.416515
vt 0.913927 0.378102
vt 0.913927 0.431443
vt 0.152797 0.854376
vt 0.137473 0.834520
vt 0.152797 0.820165
vt 0.143664 0.235001
vt 0.138382 0.212247
vt 0.143664 0.188716
vt 0.874097 0.658107
vt 0.853591 0.621835
vt 0.874097 0.607165
vt 0.750988 0.151268
vt 0.768537 0.143963
vt 0.768537 0.216229
vt 0.546804 0.436713
vt 0.574992 0.435468
vt 0.574992 0.507735
vt 0.928347 0.008891
vt 0.928347 0.044707
vt 0.906392 0.029138
vt 0.664372 0.519717
vt 0.645352 0.494949
vt 0.664372 0.435468
vt 0.463261 0.420104
vt 0.463261 0.505565
vt 0.456227 0.421543
vt 0.256403 0.155663
vt 0.256403 0.194972
vt 0.162179 0.173483
vt 0.543931 0.618064
vt 0.451615 0.603680
vt 0.543931 0.602825
vt 0.492548 0.148109
vt 0.519398 0.143963
vt 0.519398 0.229889
vt 0.187436 0.402434
vt 0.214569 0.373140
vt 0.214569 0.458248
vt 0.254544 0.699506
vt 0.254544 0.733110
vt 0.219778 0.710882
vt 0.557757 0.224483
vt 0.611681 0.216208
vt 0.611681 0.248779
vt 0.578647 0.011299
vt 0.606347 0.008891
vt 0.606347 0.078090
vt 0.149689 0.443822
vt 0.183712 0.373140
vt 0.183712 0.444220
vt 0.745939 0.319480
vt 0.728701 0.316329
vt 0.745939 0.241102
vt 0.752014 0.063422
vt 0.752014 0.140308
vt 0.734490 0.063455
vt 0.507094 0.826077
vt 0.489570 0.786775
vt 0.507094 0.786768
vt 0.652045 0.826385
vt 0.666378 0.795779
vt 0.666378 0.837984
vt 0.744584 0.817302
vt 0.744584 0.846424
vt 0.726174 0.840796
vt 0.961033 0.371455
vt 0.975594 0.363171
vt 0.975594 0.391687
vt 0.686398 0.808897
vt 0.686398 0.845756
vt 0.670579 0.839498
vt 0.068349 0.839733
vt 0.084111 0.809161
vt 0.084111 0.846020
vt 0.523405 0.112260
vt 0.579942 0.107136
vt 0.579942 0.140693
vt 0.837870 0.397129
vt 0.858968 0.374656
vt 0.858968 0.424551
vt 0.158455 0.128249
vt 0.158455 0.185447
vt 0.071962 0.140344
vt 0.209676 0.142262
vt 0.249030 0.064080
vt 0.249030 0.152394
vt 0.130370 0.823226
vt 0.089361 0.808443
vt 0.130370 0.808028
vt 0.928343 0.236442
vt 0.910852 0.228753
vt 0.928343 0.192993
vt 0.097688 0.634148
vt 0.097688 0.662591
vt 0.048806 0.655780
vt 0.363416 0.599312
vt 0.417778 0.591375
vt 0.417778 0.619818
vt 0.044131 0.792004
vt 0.028971 0.781152
vt 0.044131 0.734640
vt 0.507094 0.727878
vt 0.507094 0.783499
vt 0.489653 0.728216
vt 0.068238 0.090277
vt 0.007167 0.023706
vt 0.068238 0.008891
vt 0.578716 0.483393
vt 0.601019 0.435468
vt 0.601019 0.516855
vt 0.908731 0.241102
vt 0.908731 0.295153
vt 0.892027 0.245504
vt 0.551654 0.233158
vt 0.551654 0.248615
vt 0.492548 0.233473
vt 0.749662 0.250140
vt 0.775523 0.241102
vt 0.775523 0.292990
vt 0.214403 0.567346
vt 0.160847 0.547743
vt 0.214403 0.535866
vt 0.274693 0.635974
vt 0.232764 0.634687
vt 0.274693 0.599476
vt 0.116574 0.606295
vt 0.157123 0.603173
vt 0.157123 0.639672
vt 0.443810 0.477551
vt 0.443810 0.529493
vt 0.406505 0.493318
vt 0.710726 0.681772
vt 0.710726 0.720746
vt 0.679357 0.697025
vt 0.133749 0.789444
vt 0.133749 0.804759
vt 0.089361 0.804024
vt 0.648321 0.811090
vt 0.604159 0.810878
vt 0.648321 0.795779
vt 0.625000 0.969727
vt 0.640110 0.969727
vt 0.640110 0.984375
vt 0.625000 0.984375
vt 0.658188 0.984375
vt 0.658188 0.969727
vt 0.673374 0.969727
vt 0.656267 0.969727
vt 0.656267 0.984375
vt 0.641618 0.969727
vt 0.641618 0.984375
vt 0.673374 0.984375
vt 0.691376 0.984375
vt 0.706024 0.969727
vt 0.691376 0.969727
vt 0.690430 0.984375
vt 0.675781 0.984375
vt 0.675781 0.969727
vt 0.691376 0.984375
vt 0.706024 0.969727
vt 0.706024 0.984375
vt 0.691376 0.984375
vt 0.706024 0.969727
vt 0.690430 0.969727
vt 0.706024 0.969727
vt 0.691376 0.984375
vt 0.656267 0.969727
vt 0.641618 0.969727
vt 0.656267 0.984375
vt 0.641618 0.984375
vt 0.691376 0.984375
vt 0.691376 0.969727
vt 0.706024 0.969727
vt 0.690423 0.984375
vt 0.675775 0.969727
vt 0.675775 0.984375
vt 0.691376 0.984375
vt 0.706024 0.969727
vt 0.706024 0.984375
vt 0.706024 0.969727
vt 0.691376 0.984375
vt 0.690423 0.969727
vt 0.706024 0.969727
vt 0.691376 0.984375
vt 0.658172 0.984375
vt 0.658172 0.969727
vt 0.673359 0.969727
vt 0.673359 0.984375
vt 0.562500 0.938477
vt 0.562500 0.968750
vt 0.532227 0.938477
vt 0.564486 0.938477
vt 0.594760 0.968750
vt 0.564486 0.968750
vt 0.594760 0.938477
vt 0.624023 0.875977
vt 0.624023 0.906250
vt 0.593750 0.906250
vt 0.593750 0.875977
vt 0.530273 0.938477
vt 0.530273 0.968750
vt 0.500000 0.938477
vt 0.532227 0.968750
vt 0.500000 0.938477
vt 0.532227 0.938477
vt 0.532227 0.968750
vt 0.500000 0.968750
vt 0.500000 0.968750
vn 0.9631 0.2677 -0.0262
vn 0.4877 0.8339 -0.2582
vn 0.9631 0.2677 0.0262
vn 0.5178 -0.7115 -0.4750
vn 0.5178 -0.7115 0.4750
vn 0.9865 -0.1637 0.0000
vn 0.5965 -0.8026 0.0000
vn -0.6103 -0.2850 0.7391
vn 0.8859 0.4639 0.0000
vn 0.1913 -0.9815 0.0000
vn 0.1242 -0.4894 -0.8631
vn 0.1242 -0.4894 0.8631
vn 0.1968 -0.9804 0.0000
vn -0.6103 -0.2850 -0.7391
vn 0.1206 -0.8107 -0.5729
vn 0.7022 0.0105 -0.7119
vn 0.7810 0.2832 -0.5566
vn 0.9608 0.2773 0.0000
vn 0.1206 -0.8107 0.5729
vn 0.7022 0.0105 0.7119
vn 0.7810 0.2832 0.5566
vn -0.9410 -0.3301 -0.0735
vn -0.8726 -0.2172 0.4375
vn -0.8726 -0.2172 -0.4375
vn -0.9410 -0.3301 0.0735
vn 0.9915 -0.1298 0.0000
vn 0.9122 0.3159 0.2611
vn 0.9122 0.3159 -0.2611
vn 0.8522 0.1134 -0.5107
vn 0.8522 0.1134 0.5107
vn 0.2178 -0.0746 -0.9731
vn 0.2848 -0.0687 -0.9561
vn -0.8856 0.4469 -0.1263
vn -0.3389 0.7667 -0.5452
vn -0.1398 -0.0388 -0.9894
vn -0.3301 -0.1470 -0.9324
vn -0.0728 0.7425 -0.6658
vn -0.1186 -0.0660 -0.9907
vn 0.8069 -0.5285 0.2639
vn -0.5070 0.8298 -0.2331
vn 0.0076 0.3974 -0.9176
vn 0.1407 -0.3776 -0.9152
vn 0.2908 -0.4080 -0.8654
vn 0.1843 0.9249 -0.3325
vn -0.7512 0.6597 -0.0175
vn -0.7412 0.0170 -0.6710
vn -0.7289 0.4248 -0.5369
vn 0.8928 0.4143 -0.1764
vn 0.7190 0.3796 -0.5822
vn 0.5225 0.6414 -0.5618
vn 0.1178 0.8578 0.5004
vn -0.0791 0.6756 -0.7330
vn 0.0280 -0.5150 -0.8567
vn 0.1395 -0.1029 -0.9848
vn -0.2311 0.4920 -0.8393
vn -0.6287 0.6373 -0.4456
vn -0.8578 0.0414 -0.5123
vn -0.8188 0.0259 -0.5735
vn -0.3163 -0.7283 -0.6079
vn -0.7931 -0.3367 -0.5075
vn 0.8508 0.4235 -0.3111
vn 0.0846 0.9964 0.0000
vn 0.9973 -0.0565 -0.0479
vn 0.9633 -0.1851 -0.1940
vn 0.9975 -0.0133 -0.0695
vn 0.9746 0.1297 -0.1826
vn 0.9931 -0.0025 -0.1174
vn 0.6612 -0.3182 -0.6794
vn 0.5473 0.0130 -0.8368
vn 0.7075 0.6963 0.1205
vn 0.2946 0.1340 -0.9462
vn 0.5816 -0.1482 -0.7998
vn 0.1047 -0.6007 -0.7926
vn -0.2127 -0.9771 0.0000
vn -0.7798 -0.6260 0.0000
vn 0.2189 0.1212 -0.9682
vn 0.0245 0.9997 0.0000
vn 0.9995 0.0331 0.0000
vn 0.3656 -0.8466 -0.3867
vn -0.2558 -0.9667 0.0000
vn 0.8131 -0.2665 -0.5175
vn 0.9855 -0.1696 0.0000
vn 0.8100 0.1936 -0.5535
vn 0.9827 -0.1851 0.0000
vn 0.2857 -0.6002 -0.7470
vn 0.0413 0.3003 -0.9529
vn 0.5973 -0.3509 -0.7212
vn 0.8507 0.5256 0.0000
vn 0.7196 -0.1963 -0.6660
vn -0.0294 -0.0865 -0.9958
vn 0.1159 -0.3263 -0.9381
vn 0.7534 -0.5706 -0.3267
vn -0.8007 -0.3988 -0.4471
vn -0.9163 0.0417 0.3982
vn -0.1357 -0.1314 0.9820
vn -0.0403 -0.1390 0.9895
vn -0.9888 0.0958 -0.1146
vn -0.8014 0.1248 -0.5849
vn -0.0886 0.2051 -0.9747
vn -0.1850 0.1744 -0.9671
vn 0.8362 0.0333 -0.5473
vn 0.7772 0.0332 -0.6284
vn 0.8629 -0.1420 0.4849
vn 0.9178 -0.1460 0.3691
vn 0.8451 -0.0634 0.5307
vn 0.7895 0.2110 -0.5763
vn 0.4408 0.3926 -0.8072
vn 0.8977 0.4224 -0.1252
vn 0.0667 0.2605 -0.9631
vn -0.3873 0.1592 -0.9081
vn -0.0293 -0.8836 0.4672
vn 0.8511 -0.4838 0.2037
vn 0.8086 0.4339 -0.3973
vn 0.8297 0.0675 -0.5541
vn 0.5780 0.1903 -0.7935
vn -0.0556 0.8022 -0.5944
vn 0.0225 0.8354 -0.5491
vn -0.8374 0.5120 -0.1911
vn -0.8046 -0.4945 0.3288
vn 0.0009 -0.8632 0.5048
vn 0.6631 0.6197 0.4198
vn -0.1472 0.8429 -0.5176
vn -0.1260 0.8871 -0.4439
vn -0.9498 0.1572 -0.2704
vn -0.9169 -0.3477 -0.1959
vn -0.6384 0.4705 -0.6091
vn 0.1412 0.8193 -0.5557
vn -0.8740 0.3749 -0.3090
vn -0.8721 -0.4178 0.2547
vn -0.8454 -0.5340 0.0048
vn -0.1693 -0.8458 0.5060
vn 0.1305 0.4727 0.8715
vn 0.2630 0.8594 -0.4384
vn 0.7026 -0.2403 -0.6697
vn -0.0663 0.7218 -0.6888
vn -0.7961 0.1986 -0.5716
vn -0.6620 -0.5746 0.4812
vn -0.0574 -0.7682 0.6375
vn -0.1675 -0.8578 0.4858
vn 0.8771 -0.2698 0.3973
vn 0.4874 -0.4208 -0.7651
vn 0.9162 0.3231 0.2369
vn 0.0127 0.3339 -0.9425
vn -0.2640 -0.9418 -0.2080
vn 0.2593 -0.6377 0.7253
vn 0.9655 0.0927 0.2432
vn 0.7291 -0.6568 -0.1921
vn 0.3523 -0.6508 -0.6725
vn 0.1656 -0.9662 -0.1975
vn -0.2885 -0.7601 -0.5822
vn -0.6444 0.1243 -0.7544
vn -0.2356 0.2421 -0.9412
vn 0.0743 0.6095 -0.7892
vn -0.9830 0.1793 0.0383
vn -0.9683 0.0499 0.2449
vn 0.0276 0.2657 0.9637
vn -0.2443 0.1797 0.9529
vn 0.4278 0.6446 0.6335
vn -0.0170 0.2949 0.9554
vn 0.1356 0.7209 0.6796
vn -0.0254 0.1480 -0.9886
vn 0.0877 0.5589 -0.8245
vn 0.0179 -0.6146 -0.7886
vn -0.5249 -0.6460 -0.5541
vn -0.8144 -0.5721 -0.0967
vn -0.2563 -0.6307 0.7325
vn -0.0099 -0.7455 0.6664
vn 0.0705 -0.6684 0.7404
vn 0.2223 0.2307 0.9473
vn 0.8265 0.2466 0.5060
vn 0.7074 -0.5923 0.3855
vn 0.6435 -0.6193 -0.4498
vn 0.8083 0.1372 -0.5725
vn 0.7211 0.6921 -0.0308
vn 0.1051 0.9940 -0.0288
vn 0.1766 0.9404 0.2906
vn -0.7533 0.6575 0.0122
vn -0.7412 0.0170 0.6710
vn -0.7289 0.4248 0.5369
vn 0.8928 0.4143 0.1764
vn 0.7190 0.3796 0.5822
vn 0.5225 0.6414 0.5618
vn 0.1178 0.8578 -0.5004
vn -0.0791 0.6756 0.7330
vn 0.0280 -0.5150 0.8567
vn 0.1395 -0.1029 0.9848
vn -0.2311 0.4920 0.8393
vn -0.6287 0.6373 0.4456
vn -0.8578 0.0414 0.5123
vn -0.8188 0.0259 0.5735
vn -0.3163 -0.7283 0.6079
vn -0.7931 -0.3367 0.5075
vn 0.8508 0.4235 0.3111
vn 0.9973 -0.0554 0.0489
vn 0.9637 -0.1841 0.1930
vn 0.9974 -0.0143 0.0706
vn 0.9746 0.1297 0.1826
vn 0.9932 -0.0036 0.1164
vn 0.6612 -0.3182 0.6794
vn 0.5473 0.0130 0.8368
vn 0.7075 0.6963 -0.1205
vn 0.2946 0.1340 0.9462
vn 0.5816 -0.1482 0.7998
vn 0.1047 -0.6007 0.7926
vn 0.2189 0.1212 0.9682
vn 0.3656 -0.8466 0.3867
vn 0.8131 -0.2665 0.5175
vn 0.8100 0.1936 0.5535
vn 0.2857 -0.6002 0.7470
vn 0.0413 0.3003 0.9529
vn 0.5973 -0.3509 0.7212
vn 0.7196 -0.1963 0.6660
vn -0.0294 -0.0865 0.9958
vn 0.1159 -0.3263 0.9381
vn 0.7534 -0.5706 0.3267
vn -0.8007 -0.3988 0.4471
vn -0.9163 0.0417 -0.3982
vn -0.1357 -0.1314 -0.9820
vn -0.0403 -0.1390 -0.9895
vn -0.9888 0.0958 0.1146
vn -0.8014 0.1248 0.5849
vn -0.0886 0.2051 0.9747
vn -0.1850 0.1744 0.9671
vn 0.8362 0.0333 0.5473
vn 0.7772 0.0332 0.6284
vn 0.8629 -0.1420 -0.4849
vn 0.9178 -0.1460 -0.3691
vn 0.8451 -0.0634 -0.5307
vn 0.7895 0.2110 0.5763
vn 0.4408 0.3926 0.8072
vn 0.8977 0.4224 0.1252
vn 0.0667 0.2605 0.9631
vn -0.3873 0.1592 0.9081
vn -0.0293 -0.8836 -0.4672
vn 0.8511 -0.4838 -0.2037
vn 0.8086 0.4339 0.3973
vn 0.8297 0.0675 0.5541
vn 0.5780 0.1903 0.7935
vn -0.0556 0.8022 0.5944
vn 0.0225 0.8354 0.5491
vn -0.8374 0.5120 0.1911
vn -0.8046 -0.4945 -0.3288
vn 0.0009 -0.8632 -0.5048
vn 0.6631 0.6197 -0.4198
vn -0.1472 0.8429 0.5176
vn -0.1260 0.8871 0.4439
vn -0.9498 0.1572 0.2704
vn -0.9169 -0.3477 0.1959
vn -0.6384 0.4705 0.6091
vn 0.1412 0.8193 0.5557
vn -0.8740 0.3749 0.3090
vn -0.8721 -0.4178 -0.2547
vn -0.8454 -0.5340 -0.0048
vn -0.1693 -0.8458 -0.5060
vn 0.1305 0.4727 -0.8715
vn 0.2630 0.8594 0.4384
vn 0.7026 -0.2403 0.6697
vn -0.0663 0.7218 0.6888
vn -0.7961 0.1986 0.5716
vn -0.6620 -0.5746 -0.4812
vn -0.0574 -0.7682 -0.6375
vn -0.1675 -0.8578 -0.4858
vn 0.8771 -0.2698 -0.3973
vn 0.4874 -0.4208 0.7651
vn 0.9162 0.3231 -0.2369
vn 0.0127 0.3339 0.9425
vn -0.2640 -0.9418 0.2080
vn 0.2593 -0.6377 -0.7253
vn 0.9655 0.0927 -0.2432
vn 0.7291 -0.6568 0.1921
vn 0.3523 -0.6508 0.6725
vn 0.1656 -0.9662 0.1975
vn -0.2885 -0.7601 0.5822
vn -0.6444 0.1243 0.7544
vn 0.0743 0.6095 0.7892
vn -0.2356 0.2421 0.9412
vn -0.9830 0.1793 -0.0383
vn -0.9683 0.0499 -0.2449
vn 0.0276 0.2657 -0.9637
vn -0.2443 0.1797 -0.9529
vn 0.4278 0.6446 -0.6335
vn -0.0170 0.2949 -0.9554
vn 0.1356 0.7209 -0.6796
vn -0.0254 0.1480 0.9886
vn 0.0877 0.5589 0.8245
vn 0.0179 -0.6146 0.7886
vn -0.5249 -0.6460 0.5541
vn -0.8144 -0.5721 0.0967
vn -0.2563 -0.6307 -0.7325
vn -0.0099 -0.7455 -0.6664
vn 0.0705 -0.6684 -0.7404
vn 0.2223 0.2307 -0.9473
vn 0.8265 0.2466 -0.5060
vn 0.7074 -0.5923 -0.3855
vn 0.6435 -0.6193 0.4498
vn 0.8083 0.1372 0.5725
vn 0.7211 0.6921 0.0308
vn 0.1051 0.9940 0.0288
vn 0.9634 0.0099 -0.2679
vn 0.9681 0.0505 -0.2454
vn 0.9470 0.3189 -0.0375
vn 0.9634 0.0099 0.2679
vn 0.9681 0.0505 0.2454
vn 0.9470 0.3189 0.0375
vn -0.9902 0.1394 0.0000
usemtl Material.001
s 1
f 64/1/1 182/2/2 65/3/3
f 35/4/4 62/5/5 58/6/6
f 63/7/7 62/8/5 35/9/4
f 2/10/8 62/11/5 63/12/7
f 65/13/3 184/14/9 64/15/1
f 121/16/10 289/17/11 286/18/12
f 185/19/13 286/20/12 289/21/11
f 63/22/7 35/23/4 70/24/14
f 67/25/15 63/26/7 70/27/14
f 68/28/16 67/29/15 70/30/14
f 130/31/17 67/32/15 68/33/16
f 67/34/15 130/35/17 186/36/18
f 63/37/7 67/38/15 186/39/18
f 69/40/19 63/41/7 186/42/18
f 2/43/8 63/44/7 69/45/19
f 66/46/20 2/47/8 69/48/19
f 232/49/21 66/50/20 69/51/19
f 186/52/18 232/53/21 69/54/19
f 134/55/22 236/56/23 287/57/24
f 288/58/25 236/59/23 134/60/22
f 59/61/26 288/62/25 134/63/22
f 244/64/27 59/65/26 141/66/28
f 181/67/29 58/68/6 290/69/30
f 3/70/31 4/71/32 100/72/33
f 99/73/34 100/74/33 4/75/32
f 71/76/35 99/77/34 4/78/32
f 5/79/36 99/80/34 71/81/35
f 101/82/37 99/83/34 5/84/36
f 6/85/38 101/86/37 5/87/36
f 102/88/39 101/89/37 6/90/38
f 72/91/40 101/92/37 7/93/41
f 8/94/42 101/95/37 72/96/40
f 73/97/43 101/98/37 8/99/42
f 182/100/2 101/101/37 73/102/43
f 103/103/44 101/104/37 182/105/2
f 99/106/34 101/107/37 103/108/44
f 74/109/45 99/110/34 103/111/44
f 100/112/33 99/113/34 74/114/45
f 77/115/46 100/116/33 74/117/45
f 104/118/47 100/119/33 77/120/46
f 105/121/48 182/122/2 64/123/1
f 103/124/44 182/125/2 105/126/48
f 10/127/49 103/128/44 105/129/48
f 75/130/50 103/131/44 10/132/49
f 74/133/45 103/134/44 75/135/50
f 106/136/51 74/137/45 75/138/50
f 12/139/52 74/140/45 106/141/51
f 77/142/46 74/143/45 12/144/52
f 76/145/53 77/146/46 12/147/52
f 107/148/54 77/149/46 76/150/53
f 108/151/55 77/152/46 107/153/54
f 104/154/47 77/155/46 108/156/55
f 109/157/56 104/158/47 108/159/55
f 79/160/57 104/161/47 109/162/56
f 9/163/58 104/164/47 79/165/57
f 78/166/59 9/167/58 79/168/57
f 83/169/60 9/170/58 78/171/59
f 112/172/61 184/173/9 113/174/62
f 114/175/63 184/176/9 112/177/61
f 292/178/64 114/175/63 112/177/61
f 184/179/9 114/180/63 115/181/65
f 64/182/1 184/183/9 115/184/65
f 64/185/1 105/186/48 11/187/66
f 115/188/65 105/189/48 64/190/1
f 105/191/48 115/192/65 80/193/67
f 10/194/49 105/195/48 80/196/67
f 81/197/68 10/198/49 80/199/67
f 75/200/50 10/201/49 81/202/68
f 116/203/69 75/204/50 81/205/68
f 117/206/70 75/207/50 116/208/69
f 106/209/51 75/210/50 117/211/70
f 12/212/52 106/213/51 117/214/70
f 116/215/69 12/216/52 117/217/70
f 76/218/53 12/219/52 116/220/69
f 107/221/54 76/222/53 116/223/69
f 118/224/71 107/225/54 116/226/69
f 81/227/68 118/228/71 116/229/69
f 119/230/72 118/231/71 81/232/68
f 120/233/73 118/234/71 119/235/72
f 289/236/11 120/237/73 119/238/72
f 121/239/10 120/240/73 289/241/11
f 38/242/74 120/243/73 121/244/10
f 110/245/75 120/246/73 38/247/74
f 123/248/76 113/249/62 122/250/77
f 289/251/11 113/252/62 123/253/76
f 119/254/72 113/255/62 289/256/11
f 112/257/61 113/258/62 119/259/72
f 81/260/68 112/261/61 119/262/72
f 292/178/64 112/177/61 81/263/68
f 80/264/67 292/265/64 81/266/68
f 123/267/76 122/268/77 39/269/78
f 185/270/13 123/271/76 39/272/78
f 289/273/11 123/274/76 185/275/13
f 120/276/73 110/277/75 124/278/79
f 111/279/80 124/280/79 110/281/75
f 125/282/81 124/283/79 111/284/80
f 126/285/82 125/286/81 111/287/80
f 128/288/83 126/289/82 41/290/84
f 125/291/81 126/292/82 128/293/83
f 68/294/16 125/295/81 128/296/83
f 82/297/85 125/298/81 68/299/16
f 124/300/79 125/301/81 82/302/85
f 120/303/73 124/304/79 82/305/85
f 13/306/86 120/307/73 82/308/85
f 118/309/71 120/310/73 13/311/86
f 129/312/87 118/313/71 13/314/86
f 82/315/85 129/316/87 13/317/86
f 68/318/16 129/319/87 82/320/85
f 70/321/14 129/322/87 68/323/16
f 35/324/4 129/325/87 70/326/14
f 128/327/83 130/328/17 68/329/16
f 127/330/88 130/331/17 128/332/83
f 41/333/84 127/334/88 128/335/83
f 127/336/88 186/337/18 130/338/17
f 129/339/87 35/340/4 131/341/89
f 58/342/6 131/343/89 35/344/4
f 181/345/29 131/346/89 58/347/6
f 132/348/90 131/349/89 181/350/29
f 84/351/91 131/352/89 132/353/90
f 129/354/87 131/355/89 84/356/91
f 133/357/92 129/358/87 84/359/91
f 78/360/59 133/361/92 84/362/91
f 83/363/60 78/364/59 84/365/91
f 132/366/90 83/367/60 84/368/91
f 183/369/93 83/370/60 132/371/90
f 287/372/24 183/373/93 132/374/90
f 90/375/94 59/376/26 134/377/22
f 14/378/95 59/379/26 90/380/94
f 135/381/96 14/382/95 90/383/94
f 86/384/97 135/385/96 90/386/94
f 85/387/98 86/388/97 90/389/94
f 136/390/99 86/391/97 85/392/98
f 137/393/100 136/394/99 85/395/98
f 16/396/101 136/397/99 137/398/100
f 15/399/102 136/400/99 16/401/101
f 88/402/103 15/403/102 16/404/101
f 87/405/104 15/406/102 88/407/103
f 135/408/96 87/409/104 88/410/103
f 14/411/95 135/412/96 88/413/103
f 17/414/105 14/415/95 88/416/103
f 16/417/101 17/418/105 88/419/103
f 138/420/106 17/421/105 16/422/101
f 137/423/100 138/424/106 16/425/101
f 139/426/107 138/427/106 137/428/100
f 89/429/108 138/430/106 139/431/107
f 17/432/105 138/433/106 89/434/108
f 59/435/26 17/436/105 89/437/108
f 14/438/95 17/439/105 59/440/26
f 140/441/109 181/442/29 141/443/28
f 132/444/90 181/445/29 140/446/109
f 287/447/24 132/448/90 140/449/109
f 18/450/110 287/451/24 140/452/109
f 134/453/22 287/454/24 18/455/110
f 90/456/94 134/457/22 18/458/110
f 85/459/98 90/460/94 18/461/110
f 137/462/100 85/463/98 18/464/110
f 139/465/107 137/466/100 18/467/110
f 140/468/109 139/469/107 18/470/110
f 89/471/108 139/472/107 140/473/109
f 141/474/28 89/475/108 140/476/109
f 89/477/108 141/478/28 59/479/26
f 78/480/59 142/481/111 133/482/92
f 143/483/112 133/484/92 142/485/111
f 144/486/113 133/487/92 143/488/112
f 145/489/114 133/490/92 144/491/113
f 129/492/87 133/493/92 145/494/114
f 146/495/115 129/496/87 145/497/114
f 118/498/71 129/499/87 146/500/115
f 107/501/54 118/502/71 146/503/115
f 108/504/55 107/505/54 146/506/115
f 147/507/116 108/508/55 146/509/115
f 109/510/56 108/511/55 147/512/116
f 148/513/117 109/514/56 147/515/116
f 20/516/118 109/517/56 148/518/117
f 79/519/57 109/520/56 20/521/118
f 91/522/119 79/523/57 20/524/118
f 78/525/59 79/526/57 91/527/119
f 142/528/111 78/529/59 91/530/119
f 149/531/120 142/532/111 91/533/119
f 143/534/112 142/535/111 149/536/120
f 150/537/121 143/538/112 149/539/120
f 144/540/113 143/541/112 150/542/121
f 19/543/122 144/544/113 150/545/121
f 151/546/123 19/547/122 150/548/121
f 152/549/124 19/550/122 151/551/123
f 153/552/125 19/553/122 152/554/124
f 94/555/126 19/556/122 153/557/125
f 92/558/127 19/559/122 94/560/126
f 144/561/113 19/562/122 92/563/127
f 148/564/117 144/565/113 92/566/127
f 20/567/118 148/568/117 92/569/127
f 93/570/128 20/571/118 92/572/127
f 91/573/119 20/574/118 93/575/128
f 154/576/129 91/577/119 93/578/128
f 149/579/120 91/580/119 154/581/129
f 155/582/130 149/583/120 154/584/129
f 93/585/128 155/586/130 154/587/129
f 94/588/126 155/589/130 93/590/128
f 92/591/127 94/592/126 93/593/128
f 94/594/126 153/595/125 155/596/130
f 156/597/131 155/598/130 153/599/125
f 149/600/120 155/601/130 156/602/131
f 150/603/121 149/604/120 156/605/131
f 21/606/132 150/607/121 156/608/131
f 151/609/123 150/610/121 21/611/132
f 96/612/133 151/613/123 21/614/132
f 157/615/134 151/616/123 96/617/133
f 158/618/135 151/619/123 157/620/134
f 22/621/136 151/622/123 158/623/135
f 152/624/124 151/625/123 22/626/136
f 23/627/137 152/628/124 22/629/136
f 159/630/138 152/631/124 23/632/137
f 153/633/125 152/634/124 159/635/138
f 156/636/131 153/637/125 159/638/138
f 21/639/132 156/640/131 159/641/138
f 160/642/139 21/643/132 159/644/138
f 24/645/140 21/646/132 160/647/139
f 96/648/133 21/649/132 24/650/140
f 95/651/141 96/652/133 24/653/140
f 160/654/139 95/655/141 24/656/140
f 157/657/134 95/658/141 160/659/139
f 96/660/133 95/661/141 157/662/134
f 160/663/139 159/664/138 157/665/134
f 161/666/142 157/667/134 159/668/138
f 158/669/135 157/670/134 161/671/142
f 25/672/143 158/673/135 161/674/142
f 22/675/136 158/676/135 25/677/143
f 162/678/144 22/679/136 25/680/143
f 23/681/137 22/682/136 162/683/144
f 163/684/145 23/685/137 162/686/144
f 159/687/138 23/688/137 163/689/145
f 161/690/142 159/691/138 163/692/145
f 26/693/146 161/694/142 163/695/145
f 25/696/143 161/697/142 26/698/146
f 164/699/147 25/700/143 26/701/146
f 163/702/145 164/703/147 26/704/146
f 165/705/148 164/706/147 163/707/145
f 25/708/143 164/709/147 165/710/148
f 28/711/149 25/712/143 165/713/148
f 163/714/145 28/715/149 165/716/148
f 27/717/150 28/718/149 163/719/145
f 25/720/143 28/721/149 27/722/150
f 162/723/144 25/724/143 27/725/150
f 163/726/145 162/727/144 27/728/150
f 148/729/117 147/730/116 144/731/113
f 145/732/114 144/733/113 147/734/116
f 146/735/115 145/736/114 147/737/116
f 97/738/151 166/739/152 296/740/153
f 30/741/154 166/742/152 97/743/151
f 31/744/155 30/745/154 97/746/151
f 297/747/156 30/748/154 31/749/155
f 167/750/157 297/751/156 31/752/155
f 29/753/158 297/754/156 167/755/157
f 98/756/159 29/757/158 167/758/157
f 168/759/160 29/760/158 98/761/159
f 171/762/161 296/763/153 170/764/162
f 97/765/151 296/766/153 171/767/161
f 172/768/163 97/769/151 171/770/161
f 173/771/164 97/772/151 172/773/163
f 31/774/155 97/775/151 173/776/164
f 174/777/165 31/778/155 173/779/164
f 32/780/166 31/781/155 174/782/165
f 167/783/157 31/784/155 32/785/166
f 98/786/159 167/787/157 32/788/166
f 175/789/167 98/790/159 32/791/166
f 173/792/164 175/793/167 32/794/166
f 174/795/165 173/796/164 32/797/166
f 173/798/164 172/799/163 175/800/167
f 176/801/168 175/802/167 172/803/163
f 98/804/159 175/805/167 176/806/168
f 33/807/169 98/808/159 176/809/168
f 168/810/160 98/811/159 33/812/169
f 34/813/170 168/814/160 33/815/169
f 176/816/168 34/817/170 33/818/169
f 177/819/171 34/820/170 176/821/168
f 172/822/163 177/823/171 176/824/168
f 178/825/172 177/826/171 172/827/163
f 179/828/173 178/829/172 172/830/163
f 171/831/161 179/832/173 172/833/163
f 170/834/162 179/835/173 171/836/161
f 180/837/174 179/838/173 170/839/162
f 169/840/175 180/841/174 170/842/162
f 168/843/160 180/844/174 169/845/175
f 34/846/170 180/847/174 168/848/160
f 179/849/173 180/850/174 34/851/170
f 177/852/171 179/853/173 34/854/170
f 178/855/172 179/856/173 177/857/171
f 7/858/41 101/859/37 102/860/39
f 212/861/176 182/862/2 101/863/37
f 99/864/34 212/865/176 101/866/37
f 187/867/177 212/868/176 99/869/34
f 100/870/33 187/871/177 99/872/34
f 190/873/178 187/874/177 100/875/33
f 305/876/179 190/877/178 100/878/33
f 214/879/180 65/880/3 182/881/2
f 212/882/176 214/883/180 182/884/2
f 215/885/181 214/886/180 212/887/176
f 188/888/182 215/889/181 212/890/176
f 187/891/177 188/892/182 212/893/176
f 216/894/183 188/895/182 187/896/177
f 217/897/184 216/898/183 187/899/177
f 190/900/178 217/901/184 187/902/177
f 189/903/185 217/904/184 190/905/178
f 218/906/186 189/907/185 190/908/178
f 219/909/187 218/910/186 190/911/178
f 305/912/179 219/913/187 190/914/178
f 220/915/188 219/916/187 305/917/179
f 192/918/189 220/919/188 305/920/179
f 213/921/190 192/922/189 305/923/179
f 191/924/191 192/925/189 213/926/190
f 304/927/192 191/928/191 213/929/190
f 221/930/193 113/931/62 184/932/9
f 291/933/194 221/934/193 184/935/9
f 36/936/195 221/934/193 291/933/194
f 184/937/9 61/938/196 291/939/194
f 65/940/3 61/941/196 184/942/9
f 65/943/3 37/944/197 214/945/180
f 61/946/196 65/947/3 214/948/180
f 214/949/180 60/950/198 61/951/196
f 215/952/181 60/953/198 214/954/180
f 222/955/199 60/956/198 215/957/181
f 188/958/182 222/959/199 215/960/181
f 223/961/200 222/962/199 188/963/182
f 224/964/201 223/965/200 188/966/182
f 216/967/183 224/968/201 188/969/182
f 217/970/184 224/971/201 216/972/183
f 223/973/200 224/974/201 217/975/184
f 189/976/185 223/977/200 217/978/184
f 218/979/186 223/980/200 189/981/185
f 225/982/202 223/983/200 218/984/186
f 222/985/199 223/986/200 225/987/202
f 226/988/203 222/989/199 225/990/202
f 227/991/204 226/992/203 225/993/202
f 286/994/12 226/995/203 227/996/204
f 121/997/10 286/998/12 227/999/204
f 38/1000/74 121/1001/10 227/1002/204
f 110/1003/75 38/1004/74 227/1005/204
f 228/1006/205 122/1007/77 113/1008/62
f 286/1009/12 228/1010/205 113/1011/62
f 226/1012/203 286/1013/12 113/1014/62
f 221/1015/193 226/1016/203 113/1017/62
f 222/1018/199 226/1019/203 221/1020/193
f 36/936/195 222/1021/199 221/934/193
f 60/1022/198 222/1023/199 36/1024/195
f 228/1025/205 39/1026/78 122/1027/77
f 185/1028/13 39/1029/78 228/1030/205
f 286/1031/12 185/1032/13 228/1033/205
f 227/1034/204 40/1035/206 110/1036/75
f 111/1037/80 110/1038/75 40/1039/206
f 229/1040/207 111/1041/80 40/1042/206
f 126/1043/82 111/1044/80 229/1045/207
f 230/1046/208 41/1047/84 126/1048/82
f 229/1049/207 230/1050/208 126/1051/82
f 66/1052/20 230/1053/208 229/1054/207
f 193/1055/209 66/1056/20 229/1057/207
f 40/1058/206 193/1059/209 229/1060/207
f 227/1061/204 193/1062/209 40/1063/206
f 42/1064/210 193/1065/209 227/1066/204
f 225/1067/202 42/1068/210 227/1069/204
f 231/1070/211 42/1071/210 225/1072/202
f 193/1073/209 42/1074/210 231/1075/211
f 66/1076/20 193/1077/209 231/1078/211
f 2/1079/8 66/1080/20 231/1081/211
f 62/1082/5 2/1083/8 231/1084/211
f 230/1085/208 66/1086/20 232/1087/21
f 127/1088/88 230/1089/208 232/1090/21
f 41/1091/84 230/1092/208 127/1093/88
f 127/1094/88 232/1095/21 186/1096/18
f 231/1097/211 233/1098/212 62/1099/5
f 58/1100/6 62/1101/5 233/1102/212
f 290/1103/30 58/1104/6 233/1105/212
f 234/1106/213 290/1107/30 233/1108/212
f 194/1109/214 234/1110/213 233/1111/212
f 231/1112/211 194/1113/214 233/1114/212
f 235/1115/215 194/1116/214 231/1117/211
f 191/1118/191 194/1119/214 235/1120/215
f 304/1121/192 194/1122/214 191/1123/191
f 234/1124/213 194/1125/214 304/1126/192
f 1/1127/216 234/1128/213 304/1129/192
f 236/1130/23 234/1131/213 1/1132/216
f 200/1133/217 288/1134/25 59/1135/26
f 43/1136/218 200/1137/217 59/1138/26
f 237/1139/219 200/1140/217 43/1141/218
f 196/1142/220 200/1143/217 237/1144/219
f 195/1145/221 200/1146/217 196/1147/220
f 44/1148/222 195/1149/221 196/1150/220
f 238/1151/223 195/1152/221 44/1153/222
f 239/1154/224 238/1155/223 44/1156/222
f 240/1157/225 239/1158/224 44/1159/222
f 197/1160/226 239/1161/224 240/1162/225
f 45/1163/227 197/1164/226 240/1165/225
f 237/1166/219 197/1167/226 45/1168/227
f 43/1169/218 197/1170/226 237/1171/219
f 198/1172/228 197/1173/226 43/1174/218
f 239/1175/224 197/1176/226 198/1177/228
f 241/1178/229 239/1179/224 198/1180/228
f 238/1181/223 239/1182/224 241/1183/229
f 242/1184/230 238/1185/223 241/1186/229
f 199/1187/231 242/1188/230 241/1189/229
f 198/1190/228 199/1191/231 241/1192/229
f 59/1193/26 199/1194/231 198/1195/228
f 43/1196/218 59/1197/26 198/1198/228
f 243/1199/232 244/1200/27 290/1201/30
f 234/1202/213 243/1203/232 290/1204/30
f 236/1205/23 243/1206/232 234/1207/213
f 201/1208/233 243/1209/232 236/1210/23
f 288/1211/25 201/1212/233 236/1213/23
f 200/1214/217 201/1215/233 288/1216/25
f 195/1217/221 201/1218/233 200/1219/217
f 238/1220/223 201/1221/233 195/1222/221
f 242/1223/230 201/1224/233 238/1225/223
f 243/1226/232 201/1227/233 242/1228/230
f 199/1229/231 243/1230/232 242/1231/230
f 244/1232/27 243/1233/232 199/1234/231
f 199/1235/231 59/1236/26 244/1237/27
f 191/1238/191 235/1239/215 245/1240/234
f 246/1241/235 245/1242/234 235/1243/215
f 247/1244/236 246/1245/235 235/1246/215
f 248/1247/237 247/1248/236 235/1249/215
f 231/1250/211 248/1251/237 235/1252/215
f 249/1253/238 248/1254/237 231/1255/211
f 225/1256/202 249/1257/238 231/1258/211
f 218/1259/186 249/1260/238 225/1261/202
f 219/1262/187 249/1263/238 218/1264/186
f 250/1265/239 249/1266/238 219/1267/187
f 220/1268/188 250/1269/239 219/1270/187
f 251/1271/240 250/1272/239 220/1273/188
f 203/1274/241 251/1275/240 220/1276/188
f 192/1277/189 203/1278/241 220/1279/188
f 202/1280/242 203/1281/241 192/1282/189
f 191/1283/191 202/1284/242 192/1285/189
f 245/1286/234 202/1287/242 191/1288/191
f 46/1289/243 202/1290/242 245/1291/234
f 246/1292/235 46/1293/243 245/1294/234
f 252/1295/244 46/1296/243 246/1297/235
f 247/1298/236 252/1299/244 246/1300/235
f 253/1301/245 252/1302/244 247/1303/236
f 254/1304/246 252/1305/244 253/1306/245
f 255/1307/247 254/1308/246 253/1309/245
f 256/1310/248 255/1311/247 253/1312/245
f 205/1313/249 256/1314/248 253/1315/245
f 47/1316/250 205/1317/249 253/1318/245
f 247/1319/236 47/1320/250 253/1321/245
f 251/1322/240 47/1323/250 247/1324/236
f 203/1325/241 47/1326/250 251/1327/240
f 204/1328/251 47/1329/250 203/1330/241
f 202/1331/242 204/1332/251 203/1333/241
f 257/1334/252 204/1335/251 202/1336/242
f 46/1337/243 257/1338/252 202/1339/242
f 258/1340/253 257/1341/252 46/1342/243
f 204/1343/251 257/1344/252 258/1345/253
f 205/1346/249 204/1347/251 258/1348/253
f 47/1349/250 204/1350/251 205/1351/249
f 205/1352/249 258/1353/253 256/1354/248
f 259/1355/254 256/1356/248 258/1357/253
f 46/1358/243 259/1359/254 258/1360/253
f 252/1361/244 259/1362/254 46/1363/243
f 260/1364/255 259/1365/254 252/1366/244
f 254/1367/246 260/1368/255 252/1369/244
f 49/1370/256 260/1371/255 254/1372/246
f 261/1373/257 49/1374/256 254/1375/246
f 262/1376/258 261/1377/257 254/1378/246
f 263/1379/259 262/1380/258 254/1381/246
f 255/1382/247 263/1383/259 254/1384/246
f 264/1385/260 263/1386/259 255/1387/247
f 265/1388/261 264/1389/260 255/1390/247
f 256/1391/248 265/1392/261 255/1393/247
f 259/1394/254 265/1395/261 256/1396/248
f 260/1397/255 265/1398/261 259/1399/254
f 266/1400/262 265/1401/261 260/1402/255
f 267/1403/263 266/1404/262 260/1405/255
f 49/1406/256 267/1407/263 260/1408/255
f 48/1409/264 267/1410/263 49/1411/256
f 266/1412/262 267/1413/263 48/1414/264
f 261/1415/257 266/1416/262 48/1417/264
f 49/1418/256 261/1419/257 48/1420/264
f 266/1421/262 261/1422/257 265/1423/261
f 268/1424/265 265/1425/261 261/1426/257
f 262/1427/258 268/1428/265 261/1429/257
f 50/1430/266 268/1431/265 262/1432/258
f 263/1433/259 50/1434/266 262/1435/258
f 269/1436/267 50/1437/266 263/1438/259
f 264/1439/260 269/1440/267 263/1441/259
f 51/1442/268 269/1443/267 264/1444/260
f 265/1445/261 51/1446/268 264/1447/260
f 268/1448/265 51/1449/268 265/1450/261
f 206/1451/269 51/1452/268 268/1453/265
f 50/1454/266 206/1455/269 268/1456/265
f 270/1457/270 206/1458/269 50/1459/266
f 51/1460/268 206/1461/269 270/1462/270
f 271/1463/271 51/1464/268 270/1465/270
f 50/1466/266 271/1467/271 270/1468/270
f 208/1469/272 271/1470/271 50/1471/266
f 51/1472/268 271/1473/271 208/1474/272
f 207/1475/273 51/1476/268 208/1477/272
f 50/1478/266 207/1479/273 208/1480/272
f 269/1481/267 207/1482/273 50/1483/266
f 51/1484/268 207/1485/273 269/1486/267
f 251/1487/240 247/1488/236 250/1489/239
f 248/1490/237 250/1491/239 247/1492/236
f 249/1493/238 250/1494/239 248/1495/237
f 54/1496/274 274/1497/275 52/1498/276
f 53/1499/277 54/1500/274 52/1501/276
f 209/1502/278 54/1503/274 53/1504/277
f 272/1505/279 209/1506/278 53/1507/277
f 275/1508/280 209/1509/278 272/1510/279
f 273/1511/281 275/1512/280 272/1513/279
f 210/1514/282 275/1515/280 273/1516/281
f 301/1517/283 210/1518/282 273/1519/281
f 277/1520/284 302/1521/285 274/1522/275
f 54/1523/274 277/1524/284 274/1525/275
f 278/1526/286 277/1527/284 54/1528/274
f 55/1529/287 278/1530/286 54/1531/274
f 209/1532/278 55/1533/287 54/1534/274
f 279/1535/288 55/1536/287 209/1537/278
f 211/1538/289 279/1539/288 209/1540/278
f 275/1541/280 211/1542/289 209/1543/278
f 210/1544/282 211/1545/289 275/1546/280
f 280/1547/290 211/1548/289 210/1549/282
f 55/1550/287 211/1551/289 280/1552/290
f 279/1553/288 211/1554/289 55/1555/287
f 55/1556/287 280/1557/290 278/1558/286
f 281/1559/291 278/1560/286 280/1561/290
f 210/1562/282 281/1563/291 280/1564/290
f 282/1565/292 281/1566/291 210/1567/282
f 301/1568/283 282/1569/292 210/1570/282
f 283/1571/293 282/1572/292 301/1573/283
f 281/1574/291 282/1575/292 283/1576/293
f 56/1577/294 281/1578/291 283/1579/293
f 278/1580/286 281/1581/291 56/1582/294
f 284/1583/295 278/1584/286 56/1585/294
f 285/1586/296 278/1587/286 284/1588/295
f 277/1589/284 278/1590/286 285/1591/296
f 302/1592/285 277/1593/284 285/1594/296
f 57/1595/297 302/1596/285 285/1597/296
f 276/1598/298 302/1599/285 57/1600/297
f 301/1601/283 276/1602/298 57/1603/297
f 283/1604/293 301/1605/283 57/1606/297
f 285/1607/296 283/1608/293 57/1609/297
f 56/1610/294 283/1611/293 285/1612/296
f 284/1613/295 56/1614/294 285/1615/296
f 244/1616/27 141/1617/28 181/1618/29
f 244/1616/27 181/1618/29 290/1619/30
f 115/1620/65 114/1621/63 292/1622/64
f 293/1623/299 294/1624/300 105/1625/48
f 11/1626/66 105/1625/48 294/1624/300
f 292/1622/64 80/1627/67 115/1620/65
f 297/1628/156 29/1629/158 295/1630/301
f 296/1631/153 295/1632/301 29/1633/158
f 166/1634/152 295/1630/301 296/1635/153
f 169/1636/175 29/1637/158 168/1638/160
f 296/1631/153 29/1633/158 169/1639/175
f 170/1640/162 296/1641/153 169/1636/175
f 298/1642/302 214/1643/180 299/1644/303
f 37/1645/197 299/1644/303 214/1643/180
f 272/1646/279 300/1647/304 273/1648/281
f 274/1649/275 273/1650/281 300/1651/304
f 52/1652/276 274/1653/275 300/1647/304
f 276/1654/298 301/1655/283 273/1656/281
f 274/1649/275 276/1657/298 273/1650/281
f 302/1658/285 276/1654/298 274/1659/275
f 60/1660/198 36/1661/195 291/1662/194
f 291/1662/194 61/1663/196 60/1660/198
f 304/1664/192 303/1665/305 83/1666/60
f 183/1667/93 304/1668/192 83/1669/60
f 1/1670/216 304/1668/192 183/1667/93
f 236/1671/23 1/1672/216 183/1673/93
f 236/1671/23 183/1673/93 287/1674/24
f 303/1675/305 100/1676/33 9/1677/58
f 303/1665/305 9/1678/58 83/1666/60
f 303/1675/305 213/1679/190 100/1676/33
f 303/1665/305 304/1680/192 213/1681/190
f 9/1677/58 100/1676/33 104/1682/47
f 213/1679/190 305/1683/179 100/1676/33
